%TF.GenerationSoftware,KiCad,Pcbnew,(6.0.1)*%
%TF.CreationDate,2024-01-13T19:57:02-05:00*%
%TF.ProjectId,PCB POWER,50434220-504f-4574-9552-2e6b69636164,rev?*%
%TF.SameCoordinates,Original*%
%TF.FileFunction,Soldermask,Top*%
%TF.FilePolarity,Negative*%
%FSLAX46Y46*%
G04 Gerber Fmt 4.6, Leading zero omitted, Abs format (unit mm)*
G04 Created by KiCad (PCBNEW (6.0.1)) date 2024-01-13 19:57:02*
%MOMM*%
%LPD*%
G01*
G04 APERTURE LIST*
G04 Aperture macros list*
%AMRoundRect*
0 Rectangle with rounded corners*
0 $1 Rounding radius*
0 $2 $3 $4 $5 $6 $7 $8 $9 X,Y pos of 4 corners*
0 Add a 4 corners polygon primitive as box body*
4,1,4,$2,$3,$4,$5,$6,$7,$8,$9,$2,$3,0*
0 Add four circle primitives for the rounded corners*
1,1,$1+$1,$2,$3*
1,1,$1+$1,$4,$5*
1,1,$1+$1,$6,$7*
1,1,$1+$1,$8,$9*
0 Add four rect primitives between the rounded corners*
20,1,$1+$1,$2,$3,$4,$5,0*
20,1,$1+$1,$4,$5,$6,$7,0*
20,1,$1+$1,$6,$7,$8,$9,0*
20,1,$1+$1,$8,$9,$2,$3,0*%
G04 Aperture macros list end*
%ADD10RoundRect,0.250000X-0.250000X-0.475000X0.250000X-0.475000X0.250000X0.475000X-0.250000X0.475000X0*%
%ADD11C,1.000000*%
%ADD12RoundRect,0.250000X-0.475000X0.250000X-0.475000X-0.250000X0.475000X-0.250000X0.475000X0.250000X0*%
%ADD13RoundRect,0.250000X0.475000X-0.250000X0.475000X0.250000X-0.475000X0.250000X-0.475000X-0.250000X0*%
%ADD14R,0.475000X0.300000*%
%ADD15R,1.550000X0.600000*%
%ADD16R,1.800000X0.800000*%
%ADD17C,2.700000*%
%ADD18R,0.650000X1.525000*%
%ADD19R,0.600000X1.550000*%
%ADD20R,0.800000X1.800000*%
%ADD21R,1.200000X2.200000*%
%ADD22R,5.800000X6.400000*%
%ADD23R,1.470000X3.000000*%
%ADD24R,1.650000X1.650000*%
%ADD25C,1.650000*%
%ADD26R,1.060000X1.060000*%
%ADD27R,1.550000X2.350000*%
%ADD28R,3.000000X1.650000*%
G04 APERTURE END LIST*
D10*
%TO.C,C2*%
X66560000Y-76710000D03*
X68460000Y-76710000D03*
%TD*%
D11*
%TO.C,TP6*%
X63830000Y-78250000D03*
%TD*%
D12*
%TO.C,C8*%
X131420000Y-80150000D03*
X131420000Y-82050000D03*
%TD*%
D11*
%TO.C,TP3*%
X116210000Y-128630000D03*
%TD*%
D13*
%TO.C,C5*%
X124090000Y-117450000D03*
X124090000Y-115550000D03*
%TD*%
D11*
%TO.C,TP7*%
X128410000Y-136620000D03*
%TD*%
D14*
%TO.C,IC1*%
X127652000Y-132070000D03*
X127652000Y-132570000D03*
X127652000Y-133070000D03*
X129328000Y-133070000D03*
X129328000Y-132570000D03*
X129328000Y-132070000D03*
%TD*%
D15*
%TO.C,J7*%
X138440000Y-119760000D03*
X138440000Y-118760000D03*
D16*
X135915000Y-121060000D03*
X135915000Y-117460000D03*
%TD*%
D17*
%TO.C,H3*%
X130990000Y-69000000D03*
%TD*%
D18*
%TO.C,U1*%
X118295000Y-125552000D03*
X119565000Y-125552000D03*
X120835000Y-125552000D03*
X122105000Y-125552000D03*
X122105000Y-120128000D03*
X120835000Y-120128000D03*
X119565000Y-120128000D03*
X118295000Y-120128000D03*
%TD*%
D11*
%TO.C,TP14*%
X116050000Y-123870000D03*
%TD*%
D19*
%TO.C,J3*%
X97630000Y-64100000D03*
X96630000Y-64100000D03*
D20*
X98930000Y-66625000D03*
X95330000Y-66625000D03*
%TD*%
D15*
%TO.C,J4*%
X138520000Y-112830000D03*
X138520000Y-111830000D03*
D16*
X135995000Y-114130000D03*
X135995000Y-110530000D03*
%TD*%
D21*
%TO.C,Q2*%
X80620000Y-74970000D03*
D22*
X82900000Y-68670000D03*
D21*
X85180000Y-74970000D03*
%TD*%
D11*
%TO.C,TP5*%
X61160000Y-78220000D03*
%TD*%
D21*
%TO.C,Q1*%
X74690000Y-129000000D03*
D22*
X76970000Y-122700000D03*
D21*
X79250000Y-129000000D03*
%TD*%
D23*
%TO.C,U4*%
X126130000Y-82060000D03*
X126130000Y-74160000D03*
%TD*%
D19*
%TO.C,J5*%
X128310000Y-128295000D03*
X129310000Y-128295000D03*
X130310000Y-128295000D03*
X131310000Y-128295000D03*
X132310000Y-128295000D03*
D20*
X127010000Y-125770000D03*
X133610000Y-125770000D03*
%TD*%
D19*
%TO.C,J6*%
X104300000Y-64070000D03*
X103300000Y-64070000D03*
D20*
X105600000Y-66595000D03*
X102000000Y-66595000D03*
%TD*%
D11*
%TO.C,TP11*%
X62090000Y-122610000D03*
%TD*%
D17*
%TO.C,H1*%
X64990000Y-135000000D03*
%TD*%
D13*
%TO.C,C7*%
X126690000Y-117400000D03*
X126690000Y-115500000D03*
%TD*%
D11*
%TO.C,TP4*%
X130900000Y-122690000D03*
%TD*%
D17*
%TO.C,H2*%
X64990000Y-65000000D03*
%TD*%
D11*
%TO.C,TP2*%
X122310000Y-128630000D03*
%TD*%
D24*
%TO.C,J1*%
X62305000Y-84095000D03*
D25*
X65805000Y-84095000D03*
%TD*%
D19*
%TO.C,J2*%
X122500000Y-136470000D03*
X123500000Y-136470000D03*
D20*
X121200000Y-133945000D03*
X124800000Y-133945000D03*
%TD*%
D26*
%TO.C,U3*%
X110790000Y-62590000D03*
X113080000Y-62590000D03*
X115370000Y-62590000D03*
X117660000Y-62590000D03*
X119950000Y-62590000D03*
X110790000Y-64880000D03*
X113080000Y-64880000D03*
X115370000Y-64880000D03*
X117660000Y-64880000D03*
X119950000Y-64880000D03*
X110790000Y-67170000D03*
X113080000Y-67170000D03*
X115370000Y-67170000D03*
X117660000Y-67170000D03*
X119950000Y-67170000D03*
X110790000Y-69460000D03*
X113080000Y-69460000D03*
X115370000Y-69460000D03*
X117660000Y-69460000D03*
X119950000Y-69460000D03*
X110790000Y-71750000D03*
X113080000Y-71750000D03*
X115370000Y-71750000D03*
X117660000Y-71750000D03*
X119950000Y-71750000D03*
%TD*%
D10*
%TO.C,C4*%
X66590000Y-72650000D03*
X68490000Y-72650000D03*
%TD*%
D11*
%TO.C,TP13*%
X94220000Y-61890000D03*
%TD*%
D13*
%TO.C,C6*%
X118630000Y-117490000D03*
X118630000Y-115590000D03*
%TD*%
D11*
%TO.C,TP8*%
X136150000Y-123200000D03*
%TD*%
D27*
%TO.C,D1*%
X66740000Y-111330000D03*
X66740000Y-107030000D03*
%TD*%
D28*
%TO.C,U2*%
X73040000Y-77440000D03*
X73040000Y-72340000D03*
%TD*%
D13*
%TO.C,C1*%
X131150000Y-139230000D03*
X131150000Y-137330000D03*
%TD*%
D11*
%TO.C,TP10*%
X114700000Y-120510000D03*
%TD*%
D17*
%TO.C,H4*%
X134990000Y-135000000D03*
%TD*%
D11*
%TO.C,TP9*%
X67920000Y-60740000D03*
%TD*%
%TO.C,TP1*%
X129660000Y-130410000D03*
%TD*%
D13*
%TO.C,C3*%
X121450000Y-117470000D03*
X121450000Y-115570000D03*
%TD*%
D11*
%TO.C,TP12*%
X127180000Y-120230000D03*
%TD*%
M02*
