%TF.GenerationSoftware,KiCad,Pcbnew,(6.0.1)*%
%TF.CreationDate,2024-01-14T12:42:03-05:00*%
%TF.ProjectId,PCB POWER,50434220-504f-4574-9552-2e6b69636164,rev?*%
%TF.SameCoordinates,Original*%
%TF.FileFunction,Copper,L2,Bot*%
%TF.FilePolarity,Positive*%
%FSLAX46Y46*%
G04 Gerber Fmt 4.6, Leading zero omitted, Abs format (unit mm)*
G04 Created by KiCad (PCBNEW (6.0.1)) date 2024-01-14 12:42:03*
%MOMM*%
%LPD*%
G01*
G04 APERTURE LIST*
%TA.AperFunction,ComponentPad*%
%ADD10R,1.650000X1.650000*%
%TD*%
%TA.AperFunction,ComponentPad*%
%ADD11C,1.650000*%
%TD*%
%TA.AperFunction,ViaPad*%
%ADD12C,0.800000*%
%TD*%
%TA.AperFunction,Conductor*%
%ADD13C,0.600000*%
%TD*%
%TA.AperFunction,Conductor*%
%ADD14C,0.400000*%
%TD*%
%TA.AperFunction,Conductor*%
%ADD15C,0.300000*%
%TD*%
%TA.AperFunction,Conductor*%
%ADD16C,0.250000*%
%TD*%
G04 APERTURE END LIST*
D10*
%TO.P,J1,1,1*%
%TO.N,GND*%
X62305000Y-84095000D03*
D11*
%TO.P,J1,2,2*%
%TO.N,Net-(C2-Pad2)*%
X65805000Y-84095000D03*
%TD*%
D12*
%TO.N,Net-(D1-Pad1)*%
X82950000Y-125940000D03*
X123500000Y-138230000D03*
%TO.N,GND*%
X122060000Y-69460000D03*
X66120000Y-70450000D03*
X117660000Y-60300000D03*
X79250000Y-131920000D03*
X139580000Y-109850000D03*
X115370000Y-60310000D03*
X126640000Y-133550000D03*
X66090000Y-79080000D03*
X115370000Y-73700000D03*
X131420000Y-78260000D03*
X120840000Y-123810000D03*
X108850000Y-64880000D03*
X108720000Y-68320000D03*
X124090000Y-114110000D03*
X128910000Y-139920000D03*
X108720000Y-70600000D03*
X103300000Y-62270000D03*
X121460000Y-114070000D03*
X117660000Y-73690000D03*
%TO.N,Net-(C7-Pad1)*%
X93290000Y-73570000D03*
X83010000Y-73570000D03*
%TO.N,Net-(C1-Pad2)*%
X131150000Y-134470000D03*
X130370000Y-107390000D03*
X131150000Y-132570000D03*
X122500000Y-134540000D03*
%TO.N,THERM*%
X131940000Y-125580000D03*
X104290000Y-68780000D03*
%TD*%
D13*
%TO.N,Net-(C1-Pad2)*%
X130370000Y-107390000D02*
X130370000Y-126680000D01*
%TO.N,Net-(D1-Pad1)*%
X95240000Y-138230000D02*
X123500000Y-138230000D01*
X95240000Y-138230000D02*
X82950000Y-125940000D01*
D14*
%TO.N,Net-(C7-Pad1)*%
X93290000Y-73570000D02*
X83010000Y-73570000D01*
D13*
%TO.N,Net-(C1-Pad2)*%
X130325000Y-126725000D02*
X124480000Y-132570000D01*
D15*
X131150000Y-132570000D02*
X131150000Y-134470000D01*
D14*
X131150000Y-127460000D02*
X130370000Y-126680000D01*
D13*
X122500000Y-134540000D02*
X124470000Y-132570000D01*
D14*
X131150000Y-132570000D02*
X131150000Y-127460000D01*
D16*
X124470000Y-132570000D02*
X124480000Y-132570000D01*
%TO.N,THERM*%
X131940000Y-96430000D02*
X104290000Y-68780000D01*
X131940000Y-125580000D02*
X131940000Y-96430000D01*
%TD*%
%TA.AperFunction,Conductor*%
%TO.N,GND*%
G36*
X121299803Y-58509500D02*
G01*
X121314604Y-58511805D01*
X121314607Y-58511805D01*
X121323476Y-58513186D01*
X121341058Y-58510887D01*
X121364713Y-58510036D01*
X121611726Y-58524423D01*
X121626273Y-58526124D01*
X121707230Y-58540399D01*
X121897214Y-58573898D01*
X121911471Y-58577277D01*
X122065853Y-58623496D01*
X122175037Y-58656183D01*
X122188799Y-58661193D01*
X122441414Y-58770161D01*
X122454508Y-58776737D01*
X122692762Y-58914293D01*
X122705004Y-58922344D01*
X122925699Y-59086645D01*
X122936899Y-59096043D01*
X123137029Y-59284856D01*
X123147076Y-59295505D01*
X123323923Y-59506264D01*
X123332672Y-59518017D01*
X123462612Y-59715580D01*
X123473351Y-59736754D01*
X123473472Y-59736698D01*
X123475069Y-59740142D01*
X123475400Y-59740794D01*
X123477220Y-59745676D01*
X123480157Y-59750910D01*
X123480255Y-59751163D01*
X123480420Y-59751379D01*
X123483357Y-59756612D01*
X123486365Y-59760441D01*
X123489068Y-59764490D01*
X123489059Y-59764496D01*
X123492843Y-59769892D01*
X123751013Y-60184270D01*
X124045914Y-60593573D01*
X124367621Y-60982161D01*
X124714682Y-61348280D01*
X124716224Y-61349702D01*
X124716229Y-61349707D01*
X125084001Y-61688868D01*
X125084013Y-61688878D01*
X125085534Y-61690281D01*
X125478504Y-62006620D01*
X125480228Y-62007827D01*
X125480234Y-62007831D01*
X125760242Y-62203789D01*
X125891819Y-62295871D01*
X126323615Y-62556729D01*
X126325485Y-62557694D01*
X126325498Y-62557701D01*
X126412674Y-62602674D01*
X126771946Y-62788019D01*
X127234789Y-62988697D01*
X127710058Y-63157859D01*
X127712083Y-63158430D01*
X127712096Y-63158434D01*
X128193557Y-63294162D01*
X128193562Y-63294163D01*
X128195608Y-63294740D01*
X128689250Y-63398725D01*
X128691347Y-63399021D01*
X128691350Y-63399022D01*
X128777901Y-63411258D01*
X129188758Y-63469343D01*
X129661377Y-63504037D01*
X129669697Y-63505209D01*
X129669720Y-63505030D01*
X129674555Y-63505658D01*
X129679316Y-63506655D01*
X129685308Y-63506966D01*
X129685575Y-63507019D01*
X129685846Y-63506994D01*
X129691839Y-63507306D01*
X129696687Y-63506807D01*
X129696688Y-63506807D01*
X129705716Y-63505878D01*
X129730656Y-63505793D01*
X129962763Y-63528076D01*
X129976709Y-63530208D01*
X130153363Y-63567443D01*
X130235918Y-63584844D01*
X130249531Y-63588520D01*
X130373586Y-63629598D01*
X130501013Y-63671794D01*
X130514136Y-63676972D01*
X130518266Y-63678875D01*
X130754718Y-63787830D01*
X130767177Y-63794441D01*
X130993870Y-63931510D01*
X131005515Y-63939474D01*
X131215448Y-64101014D01*
X131226130Y-64110230D01*
X131358267Y-64237817D01*
X131416696Y-64294234D01*
X131426281Y-64304587D01*
X131595077Y-64508738D01*
X131603444Y-64520096D01*
X131726983Y-64709127D01*
X131737762Y-64730480D01*
X131737834Y-64730447D01*
X131738804Y-64732543D01*
X131739601Y-64734122D01*
X131741575Y-64739427D01*
X131744508Y-64744663D01*
X131744606Y-64744916D01*
X131744771Y-64745132D01*
X131747704Y-64750367D01*
X131750708Y-64754197D01*
X131753407Y-64758247D01*
X131753304Y-64758316D01*
X131756286Y-64762591D01*
X131994785Y-65149002D01*
X132049605Y-65237820D01*
X132050703Y-65239380D01*
X132314114Y-65613654D01*
X132379588Y-65706685D01*
X132418302Y-65755196D01*
X132736027Y-66153325D01*
X132736036Y-66153335D01*
X132737219Y-66154818D01*
X133121199Y-66580592D01*
X133122531Y-66581901D01*
X133122532Y-66581902D01*
X133508117Y-66960823D01*
X133530132Y-66982458D01*
X133531535Y-66983680D01*
X133531543Y-66983687D01*
X133805484Y-67222212D01*
X133962534Y-67358958D01*
X134416832Y-67708724D01*
X134418389Y-67709779D01*
X134418388Y-67709779D01*
X134852419Y-68004068D01*
X134891378Y-68030484D01*
X135384447Y-68323070D01*
X135894247Y-68585419D01*
X135896003Y-68586192D01*
X135896010Y-68586196D01*
X136335903Y-68780000D01*
X136418927Y-68816578D01*
X136652466Y-68903073D01*
X136954778Y-69015040D01*
X136954790Y-69015044D01*
X136956580Y-69015707D01*
X137505253Y-69182083D01*
X137507102Y-69182524D01*
X137507113Y-69182527D01*
X138061100Y-69314659D01*
X138061106Y-69314660D01*
X138062954Y-69315101D01*
X138627655Y-69414278D01*
X138916645Y-69447241D01*
X139168908Y-69476015D01*
X139176307Y-69477082D01*
X139180039Y-69477734D01*
X139184749Y-69478937D01*
X139190719Y-69479510D01*
X139190987Y-69479575D01*
X139191263Y-69479562D01*
X139197231Y-69480135D01*
X139210918Y-69479329D01*
X139235985Y-69480355D01*
X139472675Y-69513862D01*
X139486790Y-69516692D01*
X139748580Y-69584948D01*
X139762280Y-69589370D01*
X140014565Y-69687066D01*
X140027675Y-69693026D01*
X140089286Y-69725405D01*
X140267150Y-69818881D01*
X140279500Y-69826302D01*
X140503042Y-69978674D01*
X140514463Y-69987456D01*
X140543329Y-70012403D01*
X140719154Y-70164357D01*
X140729476Y-70174363D01*
X140912648Y-70373492D01*
X140921765Y-70384620D01*
X141080991Y-70603336D01*
X141088788Y-70615445D01*
X141222004Y-70850913D01*
X141228370Y-70863838D01*
X141333827Y-71112960D01*
X141338676Y-71126527D01*
X141415008Y-71386071D01*
X141418276Y-71400104D01*
X141464475Y-71666655D01*
X141466119Y-71680961D01*
X141472230Y-71787664D01*
X141479578Y-71915963D01*
X141478283Y-71942556D01*
X141478195Y-71943118D01*
X141478195Y-71943122D01*
X141476814Y-71951991D01*
X141477978Y-71960893D01*
X141477978Y-71960896D01*
X141480936Y-71983512D01*
X141482000Y-71999850D01*
X141482000Y-121290418D01*
X141480500Y-121309802D01*
X141476814Y-121333476D01*
X141479113Y-121351058D01*
X141479964Y-121374718D01*
X141465577Y-121621722D01*
X141463876Y-121636275D01*
X141416102Y-121907214D01*
X141412723Y-121921471D01*
X141333818Y-122185033D01*
X141328806Y-122198802D01*
X141219839Y-122451414D01*
X141213263Y-122464508D01*
X141075707Y-122702762D01*
X141067656Y-122715004D01*
X140903355Y-122935699D01*
X140893957Y-122946899D01*
X140705144Y-123147029D01*
X140694495Y-123157076D01*
X140483736Y-123333923D01*
X140471983Y-123342672D01*
X140274420Y-123472612D01*
X140253246Y-123483351D01*
X140253302Y-123483472D01*
X140249858Y-123485069D01*
X140249206Y-123485400D01*
X140244324Y-123487220D01*
X140239090Y-123490157D01*
X140238837Y-123490255D01*
X140238621Y-123490420D01*
X140233388Y-123493357D01*
X140229571Y-123496354D01*
X140227632Y-123497649D01*
X140224448Y-123499706D01*
X139791457Y-123770243D01*
X139791450Y-123770248D01*
X139789585Y-123771413D01*
X139365868Y-124079173D01*
X138964621Y-124415704D01*
X138963028Y-124417242D01*
X138963024Y-124417245D01*
X138731510Y-124640675D01*
X138587795Y-124779371D01*
X138237218Y-125168407D01*
X138235879Y-125170119D01*
X138235869Y-125170131D01*
X137915949Y-125579192D01*
X137914597Y-125580921D01*
X137621497Y-126014908D01*
X137620399Y-126016807D01*
X137620392Y-126016818D01*
X137360450Y-126466347D01*
X137359344Y-126468260D01*
X137129411Y-126938773D01*
X136932816Y-127424162D01*
X136770514Y-127922068D01*
X136769983Y-127924187D01*
X136769979Y-127924202D01*
X136675240Y-128302503D01*
X136643293Y-128430071D01*
X136642911Y-128432224D01*
X136642910Y-128432228D01*
X136571116Y-128836720D01*
X136551772Y-128945703D01*
X136496395Y-129466458D01*
X136477432Y-129989805D01*
X136494975Y-130513202D01*
X136495202Y-130515397D01*
X136495203Y-130515406D01*
X136534554Y-130895254D01*
X136548938Y-131034105D01*
X136639059Y-131549984D01*
X136764901Y-132058330D01*
X136765570Y-132060401D01*
X136765571Y-132060405D01*
X136925179Y-132554596D01*
X136925184Y-132554610D01*
X136925851Y-132556675D01*
X137121128Y-133042595D01*
X137349783Y-133513731D01*
X137350865Y-133515614D01*
X137350873Y-133515629D01*
X137605560Y-133958840D01*
X137610705Y-133967793D01*
X137611922Y-133969606D01*
X137611931Y-133969620D01*
X137723910Y-134136399D01*
X137888067Y-134380891D01*
X137891733Y-134386686D01*
X137892715Y-134388336D01*
X137894876Y-134392704D01*
X137898332Y-134397607D01*
X137898456Y-134397851D01*
X137898644Y-134398050D01*
X137902100Y-134402954D01*
X137905482Y-134406453D01*
X137911413Y-134412589D01*
X137927074Y-134432443D01*
X138052271Y-134628919D01*
X138059777Y-134640698D01*
X138066989Y-134653636D01*
X138187893Y-134904116D01*
X138193536Y-134917811D01*
X138284203Y-135180732D01*
X138288201Y-135194996D01*
X138347388Y-135466753D01*
X138349684Y-135481386D01*
X138350344Y-135488179D01*
X138376278Y-135755196D01*
X138376570Y-135758205D01*
X138377133Y-135773008D01*
X138371344Y-136051071D01*
X138370166Y-136065835D01*
X138331786Y-136341301D01*
X138328884Y-136355822D01*
X138258440Y-136624882D01*
X138253853Y-136638964D01*
X138167843Y-136858308D01*
X138152319Y-136897898D01*
X138146111Y-136911344D01*
X138024512Y-137138594D01*
X138014895Y-137156566D01*
X138007160Y-137169180D01*
X137848054Y-137397333D01*
X137838886Y-137408956D01*
X137698773Y-137566602D01*
X137677265Y-137590801D01*
X137657417Y-137608837D01*
X137649963Y-137614282D01*
X137644492Y-137621399D01*
X137644491Y-137621400D01*
X137630583Y-137639493D01*
X137619782Y-137651797D01*
X135705237Y-139566343D01*
X133816485Y-141455095D01*
X133754173Y-141489121D01*
X133727390Y-141492000D01*
X78699582Y-141492000D01*
X78680197Y-141490500D01*
X78665396Y-141488195D01*
X78665393Y-141488195D01*
X78656524Y-141486814D01*
X78638942Y-141489113D01*
X78615287Y-141489964D01*
X78368274Y-141475577D01*
X78353727Y-141473876D01*
X78247213Y-141455095D01*
X78082786Y-141426102D01*
X78068529Y-141422723D01*
X77914147Y-141376504D01*
X77804963Y-141343817D01*
X77791201Y-141338807D01*
X77538585Y-141229839D01*
X77525492Y-141223263D01*
X77287238Y-141085707D01*
X77274996Y-141077656D01*
X77220583Y-141037147D01*
X77054301Y-140913355D01*
X77043101Y-140903957D01*
X76842971Y-140715144D01*
X76832924Y-140704495D01*
X76656077Y-140493736D01*
X76647328Y-140481983D01*
X76517388Y-140284420D01*
X76506649Y-140263246D01*
X76506528Y-140263302D01*
X76504931Y-140259858D01*
X76504599Y-140259203D01*
X76504482Y-140258889D01*
X76502780Y-140254324D01*
X76499843Y-140249090D01*
X76499745Y-140248837D01*
X76499580Y-140248621D01*
X76496643Y-140243388D01*
X76493646Y-140239571D01*
X76492351Y-140237632D01*
X76490294Y-140234448D01*
X76219757Y-139801457D01*
X76219752Y-139801450D01*
X76218587Y-139799585D01*
X75910827Y-139375868D01*
X75574296Y-138974621D01*
X75506098Y-138903955D01*
X75212158Y-138599379D01*
X75212153Y-138599374D01*
X75210629Y-138597795D01*
X74943850Y-138357389D01*
X74823220Y-138248684D01*
X74823217Y-138248682D01*
X74821593Y-138247218D01*
X74819881Y-138245879D01*
X74819869Y-138245869D01*
X74410808Y-137925949D01*
X74410804Y-137925946D01*
X74409079Y-137924597D01*
X74386828Y-137909569D01*
X74285983Y-137841462D01*
X73975092Y-137631497D01*
X73973193Y-137630399D01*
X73973182Y-137630392D01*
X73523653Y-137370450D01*
X73523649Y-137370448D01*
X73521740Y-137369344D01*
X73051227Y-137139411D01*
X72565838Y-136942816D01*
X72546984Y-136936670D01*
X72457257Y-136907422D01*
X72067932Y-136780514D01*
X72065813Y-136779983D01*
X72065798Y-136779979D01*
X71562062Y-136653827D01*
X71562057Y-136653826D01*
X71559929Y-136653293D01*
X71557776Y-136652911D01*
X71557772Y-136652910D01*
X71046451Y-136562154D01*
X71046442Y-136562153D01*
X71044297Y-136561772D01*
X71042134Y-136561542D01*
X71042127Y-136561541D01*
X70857202Y-136541876D01*
X70523542Y-136506395D01*
X70000195Y-136487432D01*
X69476798Y-136504975D01*
X69474603Y-136505202D01*
X69474594Y-136505203D01*
X69094746Y-136544554D01*
X68955895Y-136558938D01*
X68440016Y-136649059D01*
X67931670Y-136774901D01*
X67929599Y-136775570D01*
X67929595Y-136775571D01*
X67435404Y-136935179D01*
X67435390Y-136935184D01*
X67433325Y-136935851D01*
X66947405Y-137131128D01*
X66867354Y-137169979D01*
X66478242Y-137358825D01*
X66478232Y-137358830D01*
X66476269Y-137359783D01*
X66474386Y-137360865D01*
X66474371Y-137360873D01*
X66024112Y-137619610D01*
X66024105Y-137619614D01*
X66022207Y-137620705D01*
X66020394Y-137621922D01*
X66020380Y-137621931D01*
X65899345Y-137703197D01*
X65609112Y-137898065D01*
X65603310Y-137901735D01*
X65601658Y-137902717D01*
X65597296Y-137904876D01*
X65592390Y-137908333D01*
X65592148Y-137908457D01*
X65591950Y-137908644D01*
X65587046Y-137912100D01*
X65583545Y-137915483D01*
X65583546Y-137915483D01*
X65577405Y-137921418D01*
X65557553Y-137937077D01*
X65405771Y-138033794D01*
X65349306Y-138069774D01*
X65336367Y-138076986D01*
X65085884Y-138197892D01*
X65072189Y-138203536D01*
X64809267Y-138294204D01*
X64795004Y-138298202D01*
X64523248Y-138357389D01*
X64508614Y-138359685D01*
X64392647Y-138370948D01*
X64231789Y-138386571D01*
X64216999Y-138387134D01*
X64084960Y-138384385D01*
X63938929Y-138381345D01*
X63924165Y-138380167D01*
X63702795Y-138349324D01*
X63648696Y-138341786D01*
X63634178Y-138338885D01*
X63365115Y-138268440D01*
X63351033Y-138263853D01*
X63308611Y-138247218D01*
X63092100Y-138162319D01*
X63078654Y-138156111D01*
X62833439Y-138024898D01*
X62820812Y-138017154D01*
X62592676Y-137858060D01*
X62581045Y-137848888D01*
X62521777Y-137796211D01*
X62399201Y-137687268D01*
X62381164Y-137667418D01*
X62381012Y-137667210D01*
X62375718Y-137659963D01*
X62350507Y-137640583D01*
X62338203Y-137629782D01*
X59646761Y-134938341D01*
X63027967Y-134938341D01*
X63030264Y-134996779D01*
X63030390Y-134999998D01*
X63030390Y-135000000D01*
X63037491Y-135180732D01*
X63038853Y-135215409D01*
X63088669Y-135488179D01*
X63176423Y-135751208D01*
X63183610Y-135765591D01*
X63260038Y-135918547D01*
X63300362Y-135999249D01*
X63458014Y-136227353D01*
X63461036Y-136230622D01*
X63643217Y-136427705D01*
X63643222Y-136427710D01*
X63646233Y-136430967D01*
X63861264Y-136606030D01*
X63865082Y-136608329D01*
X63865084Y-136608330D01*
X64025860Y-136705125D01*
X64098816Y-136749048D01*
X64102911Y-136750782D01*
X64102913Y-136750783D01*
X64350048Y-136855431D01*
X64350055Y-136855433D01*
X64354149Y-136857167D01*
X64452962Y-136883367D01*
X64617873Y-136927093D01*
X64617878Y-136927094D01*
X64622170Y-136928232D01*
X64626579Y-136928754D01*
X64626585Y-136928755D01*
X64752326Y-136943637D01*
X64897530Y-136960823D01*
X65174735Y-136954290D01*
X65238738Y-136943637D01*
X65443864Y-136909495D01*
X65443868Y-136909494D01*
X65448254Y-136908764D01*
X65452495Y-136907423D01*
X65452498Y-136907422D01*
X65708383Y-136826496D01*
X65708385Y-136826495D01*
X65712629Y-136825153D01*
X65871117Y-136749048D01*
X65958567Y-136707055D01*
X65958568Y-136707054D01*
X65962586Y-136705125D01*
X65966292Y-136702649D01*
X66189436Y-136553550D01*
X66189440Y-136553547D01*
X66193138Y-136551076D01*
X66399683Y-136366078D01*
X66516294Y-136227353D01*
X66575235Y-136157235D01*
X66575237Y-136157233D01*
X66578102Y-136153824D01*
X66724834Y-135918547D01*
X66836951Y-135664943D01*
X66912216Y-135398072D01*
X66930611Y-135261118D01*
X66948701Y-135126440D01*
X66948702Y-135126432D01*
X66949128Y-135123258D01*
X66950363Y-135083978D01*
X66952901Y-135003222D01*
X66952901Y-135003217D01*
X66953002Y-135000000D01*
X66933418Y-134723411D01*
X66919751Y-134659928D01*
X66875994Y-134456687D01*
X66875994Y-134456685D01*
X66875058Y-134452340D01*
X66779086Y-134192196D01*
X66658005Y-133967793D01*
X66649530Y-133952087D01*
X66647417Y-133948171D01*
X66557538Y-133826485D01*
X66485327Y-133728718D01*
X66485324Y-133728715D01*
X66482678Y-133725132D01*
X66288157Y-133527530D01*
X66267491Y-133511758D01*
X66071274Y-133362010D01*
X66071270Y-133362008D01*
X66067733Y-133359308D01*
X66005068Y-133324214D01*
X65829696Y-133226001D01*
X65829690Y-133225998D01*
X65825806Y-133223823D01*
X65821648Y-133222215D01*
X65821643Y-133222212D01*
X65571357Y-133125383D01*
X65571351Y-133125381D01*
X65567202Y-133123776D01*
X65562870Y-133122772D01*
X65562867Y-133122771D01*
X65451316Y-133096915D01*
X65297081Y-133061166D01*
X65020833Y-133037240D01*
X65016398Y-133037484D01*
X65016394Y-133037484D01*
X64748414Y-133052232D01*
X64748407Y-133052233D01*
X64743971Y-133052477D01*
X64472017Y-133106572D01*
X64210398Y-133198446D01*
X63964334Y-133326266D01*
X63960719Y-133328849D01*
X63960713Y-133328853D01*
X63742356Y-133484893D01*
X63742352Y-133484896D01*
X63738735Y-133487481D01*
X63538103Y-133678875D01*
X63366439Y-133896629D01*
X63338582Y-133944589D01*
X63229404Y-134132552D01*
X63229401Y-134132558D01*
X63227170Y-134136399D01*
X63225500Y-134140522D01*
X63128148Y-134380873D01*
X63123074Y-134393399D01*
X63122003Y-134397712D01*
X63122001Y-134397717D01*
X63057301Y-134658182D01*
X63056228Y-134662503D01*
X63055774Y-134666931D01*
X63055774Y-134666933D01*
X63031355Y-134905271D01*
X63027967Y-134938341D01*
X59646761Y-134938341D01*
X58534905Y-133826485D01*
X58500879Y-133764173D01*
X58498000Y-133737390D01*
X58498000Y-125940000D01*
X82036496Y-125940000D01*
X82037186Y-125946565D01*
X82051005Y-126078042D01*
X82056458Y-126129928D01*
X82115473Y-126311556D01*
X82118776Y-126317278D01*
X82118777Y-126317279D01*
X82149861Y-126371118D01*
X82210960Y-126476944D01*
X82215378Y-126481851D01*
X82215379Y-126481852D01*
X82334325Y-126613955D01*
X82338747Y-126618866D01*
X82493248Y-126731118D01*
X82499276Y-126733802D01*
X82499278Y-126733803D01*
X82660242Y-126805468D01*
X82698088Y-126831480D01*
X94661719Y-138795110D01*
X94662647Y-138796047D01*
X94725771Y-138860507D01*
X94731691Y-138864322D01*
X94731697Y-138864327D01*
X94762214Y-138883994D01*
X94772559Y-138891427D01*
X94806443Y-138918476D01*
X94812782Y-138921540D01*
X94812783Y-138921541D01*
X94836637Y-138933072D01*
X94850054Y-138940601D01*
X94878238Y-138958765D01*
X94884855Y-138961173D01*
X94884860Y-138961176D01*
X94918973Y-138973592D01*
X94930716Y-138978553D01*
X94963400Y-138994353D01*
X94963409Y-138994356D01*
X94969749Y-138997421D01*
X94976614Y-138999006D01*
X95002428Y-139004966D01*
X95017168Y-139009332D01*
X95048685Y-139020803D01*
X95055670Y-139021685D01*
X95055677Y-139021687D01*
X95091692Y-139026237D01*
X95104243Y-139028472D01*
X95146485Y-139038225D01*
X95153529Y-139038250D01*
X95153533Y-139038250D01*
X95187074Y-139038367D01*
X95187943Y-139038396D01*
X95188769Y-139038500D01*
X95225133Y-139038500D01*
X95225573Y-139038501D01*
X95324336Y-139038846D01*
X95324342Y-139038846D01*
X95327870Y-139038858D01*
X95329073Y-139038589D01*
X95330717Y-139038500D01*
X123055506Y-139038500D01*
X123106755Y-139049393D01*
X123217712Y-139098794D01*
X123311112Y-139118647D01*
X123398056Y-139137128D01*
X123398061Y-139137128D01*
X123404513Y-139138500D01*
X123595487Y-139138500D01*
X123601939Y-139137128D01*
X123601944Y-139137128D01*
X123688888Y-139118647D01*
X123782288Y-139098794D01*
X123788319Y-139096109D01*
X123950722Y-139023803D01*
X123950724Y-139023802D01*
X123956752Y-139021118D01*
X123974936Y-139007907D01*
X124098026Y-138918476D01*
X124111253Y-138908866D01*
X124212836Y-138796047D01*
X124234621Y-138771852D01*
X124234622Y-138771851D01*
X124239040Y-138766944D01*
X124334527Y-138601556D01*
X124393542Y-138419928D01*
X124397614Y-138381191D01*
X124412814Y-138236565D01*
X124413504Y-138230000D01*
X124397422Y-138076986D01*
X124394232Y-138046635D01*
X124394232Y-138046633D01*
X124393542Y-138040072D01*
X124334527Y-137858444D01*
X124324723Y-137841462D01*
X124242341Y-137698774D01*
X124239040Y-137693056D01*
X124233830Y-137687269D01*
X124115675Y-137556045D01*
X124115674Y-137556044D01*
X124111253Y-137551134D01*
X123956752Y-137438882D01*
X123950724Y-137436198D01*
X123950722Y-137436197D01*
X123788319Y-137363891D01*
X123788318Y-137363891D01*
X123782288Y-137361206D01*
X123688888Y-137341353D01*
X123601944Y-137322872D01*
X123601939Y-137322872D01*
X123595487Y-137321500D01*
X123404513Y-137321500D01*
X123398061Y-137322872D01*
X123398056Y-137322872D01*
X123311112Y-137341353D01*
X123217712Y-137361206D01*
X123211682Y-137363891D01*
X123211681Y-137363891D01*
X123106755Y-137410607D01*
X123055506Y-137421500D01*
X95627082Y-137421500D01*
X95558961Y-137401498D01*
X95537987Y-137384595D01*
X83836092Y-125682700D01*
X83805354Y-125632542D01*
X83786568Y-125574725D01*
X83786567Y-125574724D01*
X83784527Y-125568444D01*
X83689040Y-125403056D01*
X83671697Y-125383794D01*
X83565675Y-125266045D01*
X83565674Y-125266044D01*
X83561253Y-125261134D01*
X83433626Y-125168407D01*
X83412094Y-125152763D01*
X83412093Y-125152762D01*
X83406752Y-125148882D01*
X83400724Y-125146198D01*
X83400722Y-125146197D01*
X83238319Y-125073891D01*
X83238318Y-125073891D01*
X83232288Y-125071206D01*
X83138888Y-125051353D01*
X83051944Y-125032872D01*
X83051939Y-125032872D01*
X83045487Y-125031500D01*
X82854513Y-125031500D01*
X82848061Y-125032872D01*
X82848056Y-125032872D01*
X82761112Y-125051353D01*
X82667712Y-125071206D01*
X82661682Y-125073891D01*
X82661681Y-125073891D01*
X82499278Y-125146197D01*
X82499276Y-125146198D01*
X82493248Y-125148882D01*
X82487907Y-125152762D01*
X82487906Y-125152763D01*
X82466374Y-125168407D01*
X82338747Y-125261134D01*
X82334326Y-125266044D01*
X82334325Y-125266045D01*
X82228304Y-125383794D01*
X82210960Y-125403056D01*
X82115473Y-125568444D01*
X82056458Y-125750072D01*
X82036496Y-125940000D01*
X58498000Y-125940000D01*
X58498000Y-100000001D01*
X70308759Y-100000001D01*
X70326371Y-100493126D01*
X70326611Y-100495361D01*
X70326612Y-100495371D01*
X70378875Y-100981490D01*
X70379117Y-100983738D01*
X70379517Y-100985955D01*
X70379518Y-100985962D01*
X70466331Y-101467133D01*
X70466333Y-101467143D01*
X70466729Y-101469337D01*
X70588760Y-101947450D01*
X70744588Y-102415638D01*
X70745441Y-102417698D01*
X70745445Y-102417708D01*
X70851983Y-102674913D01*
X70933419Y-102871517D01*
X71154291Y-103312763D01*
X71406078Y-103737128D01*
X71407360Y-103738974D01*
X71407361Y-103738976D01*
X71468164Y-103826548D01*
X71687498Y-104142449D01*
X71688891Y-104144177D01*
X71688901Y-104144191D01*
X71729251Y-104194262D01*
X71997115Y-104526662D01*
X72313439Y-104866418D01*
X72317883Y-104871871D01*
X72318072Y-104871713D01*
X72321189Y-104875445D01*
X72324015Y-104879413D01*
X72332774Y-104888388D01*
X72336669Y-104891307D01*
X72336670Y-104891308D01*
X72355082Y-104905107D01*
X72368612Y-104916838D01*
X95067682Y-127615907D01*
X95081229Y-127631922D01*
X95092855Y-127648251D01*
X95096251Y-127651731D01*
X95096255Y-127651736D01*
X95097814Y-127653333D01*
X95101613Y-127657226D01*
X95105502Y-127660141D01*
X95109167Y-127663358D01*
X95109108Y-127663425D01*
X95112698Y-127666427D01*
X95123582Y-127676560D01*
X95463338Y-127992885D01*
X95465074Y-127994284D01*
X95465081Y-127994290D01*
X95845809Y-128301100D01*
X95845823Y-128301110D01*
X95847551Y-128302503D01*
X95849383Y-128303775D01*
X95849387Y-128303778D01*
X96251024Y-128582640D01*
X96252872Y-128583923D01*
X96254807Y-128585071D01*
X96675303Y-128834564D01*
X96675313Y-128834570D01*
X96677237Y-128835711D01*
X96679253Y-128836720D01*
X97116479Y-129055580D01*
X97116493Y-129055587D01*
X97118484Y-129056583D01*
X97120544Y-129057436D01*
X97120550Y-129057439D01*
X97572292Y-129244557D01*
X97572302Y-129244561D01*
X97574362Y-129245414D01*
X98042551Y-129401242D01*
X98520663Y-129523273D01*
X98522858Y-129523669D01*
X98522867Y-129523671D01*
X99004038Y-129610484D01*
X99004045Y-129610485D01*
X99006262Y-129610885D01*
X99008501Y-129611126D01*
X99008510Y-129611127D01*
X99494630Y-129663390D01*
X99494640Y-129663391D01*
X99496875Y-129663631D01*
X99990000Y-129681243D01*
X100483125Y-129663631D01*
X100485360Y-129663391D01*
X100485370Y-129663390D01*
X100971490Y-129611127D01*
X100971499Y-129611126D01*
X100973738Y-129610885D01*
X100975955Y-129610485D01*
X100975962Y-129610484D01*
X101457133Y-129523671D01*
X101457142Y-129523669D01*
X101459337Y-129523273D01*
X101937449Y-129401242D01*
X102405638Y-129245414D01*
X102407698Y-129244561D01*
X102407708Y-129244557D01*
X102859450Y-129057439D01*
X102859456Y-129057436D01*
X102861516Y-129056583D01*
X102863507Y-129055587D01*
X102863521Y-129055580D01*
X103300747Y-128836720D01*
X103302763Y-128835711D01*
X103304687Y-128834570D01*
X103304697Y-128834564D01*
X103725193Y-128585071D01*
X103727128Y-128583923D01*
X103728976Y-128582640D01*
X104130613Y-128303778D01*
X104130617Y-128303775D01*
X104132449Y-128302503D01*
X104134177Y-128301110D01*
X104134191Y-128301100D01*
X104514919Y-127994290D01*
X104514926Y-127994284D01*
X104516662Y-127992885D01*
X104856420Y-127676558D01*
X104861871Y-127672116D01*
X104861713Y-127671927D01*
X104865445Y-127668810D01*
X104869413Y-127665984D01*
X104878387Y-127657226D01*
X104881297Y-127653343D01*
X104881306Y-127653333D01*
X104895109Y-127634915D01*
X104906840Y-127621385D01*
X127605907Y-104922319D01*
X127621917Y-104908776D01*
X127638252Y-104897146D01*
X127647226Y-104888388D01*
X127650143Y-104884495D01*
X127653356Y-104880835D01*
X127653424Y-104880895D01*
X127656419Y-104877313D01*
X127981363Y-104528298D01*
X127981366Y-104528294D01*
X127982885Y-104526663D01*
X127984290Y-104524920D01*
X128291100Y-104144192D01*
X128291110Y-104144178D01*
X128292503Y-104142450D01*
X128293779Y-104140613D01*
X128572640Y-103738976D01*
X128572641Y-103738974D01*
X128573923Y-103737128D01*
X128825710Y-103312763D01*
X129046582Y-102871517D01*
X129128018Y-102674913D01*
X129234556Y-102417708D01*
X129234560Y-102417698D01*
X129235413Y-102415638D01*
X129391241Y-101947450D01*
X129513272Y-101469338D01*
X129530210Y-101375461D01*
X129600483Y-100985962D01*
X129600484Y-100985955D01*
X129600884Y-100983738D01*
X129601126Y-100981490D01*
X129653389Y-100495371D01*
X129653390Y-100495361D01*
X129653630Y-100493126D01*
X129671242Y-100000001D01*
X129653630Y-99506875D01*
X129607553Y-99078289D01*
X129601126Y-99018511D01*
X129601125Y-99018502D01*
X129600884Y-99016263D01*
X129600483Y-99014039D01*
X129513670Y-98532868D01*
X129513668Y-98532858D01*
X129513272Y-98530664D01*
X129391241Y-98052551D01*
X129235413Y-97584363D01*
X129128019Y-97325089D01*
X129047438Y-97130550D01*
X129047435Y-97130544D01*
X129046582Y-97128484D01*
X128825710Y-96687238D01*
X128573923Y-96262873D01*
X128451544Y-96086613D01*
X128293778Y-95859387D01*
X128293775Y-95859383D01*
X128292503Y-95857551D01*
X127982885Y-95473339D01*
X127666558Y-95133580D01*
X127662114Y-95128129D01*
X127661926Y-95128286D01*
X127658805Y-95124549D01*
X127655984Y-95120588D01*
X127647226Y-95111613D01*
X127624918Y-95094894D01*
X127611388Y-95083163D01*
X104912318Y-72384093D01*
X104898775Y-72368083D01*
X104887145Y-72351748D01*
X104878387Y-72342774D01*
X104874496Y-72339858D01*
X104870835Y-72336644D01*
X104870894Y-72336577D01*
X104867302Y-72333573D01*
X104594963Y-72080017D01*
X104516661Y-72007115D01*
X104448257Y-71951991D01*
X104134190Y-71698900D01*
X104132449Y-71697497D01*
X104031688Y-71627537D01*
X103728975Y-71417360D01*
X103728973Y-71417359D01*
X103727127Y-71416077D01*
X103302762Y-71164290D01*
X102883445Y-70954395D01*
X102863520Y-70944421D01*
X102863517Y-70944420D01*
X102861516Y-70943418D01*
X102859456Y-70942565D01*
X102859450Y-70942562D01*
X102407707Y-70755444D01*
X102407697Y-70755440D01*
X102405637Y-70754587D01*
X101937449Y-70598759D01*
X101459337Y-70476728D01*
X101457142Y-70476332D01*
X101457133Y-70476330D01*
X100975962Y-70389517D01*
X100975955Y-70389516D01*
X100973738Y-70389116D01*
X100971499Y-70388875D01*
X100971490Y-70388874D01*
X100485370Y-70336611D01*
X100485360Y-70336610D01*
X100483125Y-70336370D01*
X99990000Y-70318758D01*
X99496875Y-70336370D01*
X99494640Y-70336610D01*
X99494630Y-70336611D01*
X99008510Y-70388874D01*
X99008501Y-70388875D01*
X99006262Y-70389116D01*
X99004045Y-70389516D01*
X99004038Y-70389517D01*
X98522867Y-70476330D01*
X98522858Y-70476332D01*
X98520663Y-70476728D01*
X98042551Y-70598759D01*
X97574363Y-70754587D01*
X97572303Y-70755440D01*
X97572293Y-70755444D01*
X97120550Y-70942562D01*
X97120544Y-70942565D01*
X97118484Y-70943418D01*
X97116483Y-70944420D01*
X97116480Y-70944421D01*
X97096555Y-70954395D01*
X96677238Y-71164290D01*
X96252873Y-71416077D01*
X96251027Y-71417359D01*
X96251025Y-71417360D01*
X95948313Y-71627537D01*
X95847551Y-71697497D01*
X95845810Y-71698900D01*
X95531744Y-71951991D01*
X95463339Y-72007115D01*
X95145492Y-72303041D01*
X95123582Y-72323440D01*
X95118129Y-72327884D01*
X95118287Y-72328073D01*
X95114555Y-72331190D01*
X95110587Y-72334016D01*
X95101613Y-72342774D01*
X95098694Y-72346669D01*
X95098693Y-72346670D01*
X95084894Y-72365082D01*
X95073163Y-72378612D01*
X94287784Y-73163991D01*
X94225472Y-73198017D01*
X94154657Y-73192952D01*
X94097821Y-73150405D01*
X94089570Y-73137896D01*
X94032342Y-73038774D01*
X94032339Y-73038769D01*
X94029040Y-73033056D01*
X93901253Y-72891134D01*
X93746752Y-72778882D01*
X93740724Y-72776198D01*
X93740722Y-72776197D01*
X93578319Y-72703891D01*
X93578318Y-72703891D01*
X93572288Y-72701206D01*
X93478888Y-72681353D01*
X93391944Y-72662872D01*
X93391939Y-72662872D01*
X93385487Y-72661500D01*
X93194513Y-72661500D01*
X93188061Y-72662872D01*
X93188056Y-72662872D01*
X93101112Y-72681353D01*
X93007712Y-72701206D01*
X93001682Y-72703891D01*
X93001681Y-72703891D01*
X92839278Y-72776197D01*
X92839276Y-72776198D01*
X92833248Y-72778882D01*
X92827907Y-72782762D01*
X92827906Y-72782763D01*
X92752656Y-72837436D01*
X92685789Y-72861294D01*
X92678595Y-72861500D01*
X83621405Y-72861500D01*
X83553284Y-72841498D01*
X83547344Y-72837436D01*
X83472094Y-72782763D01*
X83472093Y-72782762D01*
X83466752Y-72778882D01*
X83460724Y-72776198D01*
X83460722Y-72776197D01*
X83298319Y-72703891D01*
X83298318Y-72703891D01*
X83292288Y-72701206D01*
X83198888Y-72681353D01*
X83111944Y-72662872D01*
X83111939Y-72662872D01*
X83105487Y-72661500D01*
X82914513Y-72661500D01*
X82908061Y-72662872D01*
X82908056Y-72662872D01*
X82821112Y-72681353D01*
X82727712Y-72701206D01*
X82721682Y-72703891D01*
X82721681Y-72703891D01*
X82559278Y-72776197D01*
X82559276Y-72776198D01*
X82553248Y-72778882D01*
X82398747Y-72891134D01*
X82270960Y-73033056D01*
X82175473Y-73198444D01*
X82116458Y-73380072D01*
X82096496Y-73570000D01*
X82116458Y-73759928D01*
X82175473Y-73941556D01*
X82270960Y-74106944D01*
X82398747Y-74248866D01*
X82553248Y-74361118D01*
X82559276Y-74363802D01*
X82559278Y-74363803D01*
X82721681Y-74436109D01*
X82727712Y-74438794D01*
X82821112Y-74458647D01*
X82908056Y-74477128D01*
X82908061Y-74477128D01*
X82914513Y-74478500D01*
X83105487Y-74478500D01*
X83111939Y-74477128D01*
X83111944Y-74477128D01*
X83198888Y-74458647D01*
X83292288Y-74438794D01*
X83298319Y-74436109D01*
X83460722Y-74363803D01*
X83460724Y-74363802D01*
X83466752Y-74361118D01*
X83547344Y-74302564D01*
X83614211Y-74278706D01*
X83621405Y-74278500D01*
X92678595Y-74278500D01*
X92746716Y-74298502D01*
X92752656Y-74302564D01*
X92833248Y-74361118D01*
X92839279Y-74363803D01*
X92843874Y-74365849D01*
X92897971Y-74411827D01*
X92918622Y-74479754D01*
X92899271Y-74548063D01*
X92881723Y-74570052D01*
X72374093Y-95077682D01*
X72358083Y-95091225D01*
X72341748Y-95102855D01*
X72332774Y-95111613D01*
X72329855Y-95115508D01*
X72326648Y-95119162D01*
X72326580Y-95119103D01*
X72323578Y-95122695D01*
X71997116Y-95473339D01*
X71995717Y-95475075D01*
X71995711Y-95475082D01*
X71688901Y-95855810D01*
X71688891Y-95855824D01*
X71687498Y-95857552D01*
X71686226Y-95859384D01*
X71686223Y-95859388D01*
X71498505Y-96129754D01*
X71406078Y-96262874D01*
X71154291Y-96687239D01*
X70933419Y-97128485D01*
X70932566Y-97130545D01*
X70932563Y-97130551D01*
X70745446Y-97582293D01*
X70744588Y-97584364D01*
X70588760Y-98052552D01*
X70466729Y-98530664D01*
X70466333Y-98532859D01*
X70466331Y-98532868D01*
X70379518Y-99014039D01*
X70379117Y-99016263D01*
X70378876Y-99018502D01*
X70378875Y-99018511D01*
X70372449Y-99078289D01*
X70326371Y-99506875D01*
X70308759Y-100000001D01*
X58498000Y-100000001D01*
X58498000Y-84964669D01*
X60972001Y-84964669D01*
X60972371Y-84971490D01*
X60977895Y-85022352D01*
X60981521Y-85037604D01*
X61026676Y-85158054D01*
X61035214Y-85173649D01*
X61111715Y-85275724D01*
X61124276Y-85288285D01*
X61226351Y-85364786D01*
X61241946Y-85373324D01*
X61362394Y-85418478D01*
X61377649Y-85422105D01*
X61428514Y-85427631D01*
X61435328Y-85428000D01*
X62032885Y-85428000D01*
X62048124Y-85423525D01*
X62049329Y-85422135D01*
X62051000Y-85414452D01*
X62051000Y-85409884D01*
X62559000Y-85409884D01*
X62563475Y-85425123D01*
X62564865Y-85426328D01*
X62572548Y-85427999D01*
X63174669Y-85427999D01*
X63181490Y-85427629D01*
X63232352Y-85422105D01*
X63247604Y-85418479D01*
X63368054Y-85373324D01*
X63383649Y-85364786D01*
X63485724Y-85288285D01*
X63498285Y-85275724D01*
X63574786Y-85173649D01*
X63583324Y-85158054D01*
X63628478Y-85037606D01*
X63632105Y-85022351D01*
X63637631Y-84971486D01*
X63638000Y-84964672D01*
X63638000Y-84367115D01*
X63633525Y-84351876D01*
X63632135Y-84350671D01*
X63624452Y-84349000D01*
X62577115Y-84349000D01*
X62561876Y-84353475D01*
X62560671Y-84354865D01*
X62559000Y-84362548D01*
X62559000Y-85409884D01*
X62051000Y-85409884D01*
X62051000Y-84367115D01*
X62046525Y-84351876D01*
X62045135Y-84350671D01*
X62037452Y-84349000D01*
X60990116Y-84349000D01*
X60974877Y-84353475D01*
X60973672Y-84354865D01*
X60972001Y-84362548D01*
X60972001Y-84964669D01*
X58498000Y-84964669D01*
X58498000Y-84095000D01*
X64466406Y-84095000D01*
X64486742Y-84327444D01*
X64488166Y-84332757D01*
X64488166Y-84332759D01*
X64493289Y-84351876D01*
X64547133Y-84552826D01*
X64549455Y-84557806D01*
X64549456Y-84557808D01*
X64643418Y-84759310D01*
X64643421Y-84759315D01*
X64645744Y-84764297D01*
X64779578Y-84955432D01*
X64944568Y-85120422D01*
X64949076Y-85123579D01*
X64949079Y-85123581D01*
X64998312Y-85158054D01*
X65135703Y-85254256D01*
X65140685Y-85256579D01*
X65140690Y-85256582D01*
X65342192Y-85350544D01*
X65347174Y-85352867D01*
X65352482Y-85354289D01*
X65352484Y-85354290D01*
X65567241Y-85411834D01*
X65567243Y-85411834D01*
X65572556Y-85413258D01*
X65805000Y-85433594D01*
X66037444Y-85413258D01*
X66042757Y-85411834D01*
X66042759Y-85411834D01*
X66257516Y-85354290D01*
X66257518Y-85354289D01*
X66262826Y-85352867D01*
X66267808Y-85350544D01*
X66469310Y-85256582D01*
X66469315Y-85256579D01*
X66474297Y-85254256D01*
X66611688Y-85158054D01*
X66660921Y-85123581D01*
X66660924Y-85123579D01*
X66665432Y-85120422D01*
X66830422Y-84955432D01*
X66964256Y-84764297D01*
X66966579Y-84759315D01*
X66966582Y-84759310D01*
X67060544Y-84557808D01*
X67060545Y-84557806D01*
X67062867Y-84552826D01*
X67116712Y-84351876D01*
X67121834Y-84332759D01*
X67121834Y-84332757D01*
X67123258Y-84327444D01*
X67143594Y-84095000D01*
X67123258Y-83862556D01*
X67117034Y-83839329D01*
X67064290Y-83642484D01*
X67064289Y-83642482D01*
X67062867Y-83637174D01*
X67060544Y-83632192D01*
X66966582Y-83430690D01*
X66966579Y-83430685D01*
X66964256Y-83425703D01*
X66830422Y-83234568D01*
X66665432Y-83069578D01*
X66660924Y-83066421D01*
X66660921Y-83066419D01*
X66478806Y-82938901D01*
X66478804Y-82938900D01*
X66474297Y-82935744D01*
X66469315Y-82933421D01*
X66469310Y-82933418D01*
X66267808Y-82839456D01*
X66267806Y-82839455D01*
X66262826Y-82837133D01*
X66257518Y-82835711D01*
X66257516Y-82835710D01*
X66042759Y-82778166D01*
X66042757Y-82778166D01*
X66037444Y-82776742D01*
X65805000Y-82756406D01*
X65572556Y-82776742D01*
X65567243Y-82778166D01*
X65567241Y-82778166D01*
X65352484Y-82835710D01*
X65352482Y-82835711D01*
X65347174Y-82837133D01*
X65342194Y-82839455D01*
X65342192Y-82839456D01*
X65140690Y-82933418D01*
X65140685Y-82933421D01*
X65135703Y-82935744D01*
X65131196Y-82938900D01*
X65131194Y-82938901D01*
X64949079Y-83066419D01*
X64949076Y-83066421D01*
X64944568Y-83069578D01*
X64779578Y-83234568D01*
X64645744Y-83425703D01*
X64643421Y-83430685D01*
X64643418Y-83430690D01*
X64549456Y-83632192D01*
X64547133Y-83637174D01*
X64545711Y-83642482D01*
X64545710Y-83642484D01*
X64492966Y-83839329D01*
X64486742Y-83862556D01*
X64466406Y-84095000D01*
X58498000Y-84095000D01*
X58498000Y-83822885D01*
X60972000Y-83822885D01*
X60976475Y-83838124D01*
X60977865Y-83839329D01*
X60985548Y-83841000D01*
X62032885Y-83841000D01*
X62048124Y-83836525D01*
X62049329Y-83835135D01*
X62051000Y-83827452D01*
X62051000Y-83822885D01*
X62559000Y-83822885D01*
X62563475Y-83838124D01*
X62564865Y-83839329D01*
X62572548Y-83841000D01*
X63619884Y-83841000D01*
X63635123Y-83836525D01*
X63636328Y-83835135D01*
X63637999Y-83827452D01*
X63637999Y-83225331D01*
X63637629Y-83218510D01*
X63632105Y-83167648D01*
X63628479Y-83152396D01*
X63583324Y-83031946D01*
X63574786Y-83016351D01*
X63498285Y-82914276D01*
X63485724Y-82901715D01*
X63383649Y-82825214D01*
X63368054Y-82816676D01*
X63247606Y-82771522D01*
X63232351Y-82767895D01*
X63181486Y-82762369D01*
X63174672Y-82762000D01*
X62577115Y-82762000D01*
X62561876Y-82766475D01*
X62560671Y-82767865D01*
X62559000Y-82775548D01*
X62559000Y-83822885D01*
X62051000Y-83822885D01*
X62051000Y-82780116D01*
X62046525Y-82764877D01*
X62045135Y-82763672D01*
X62037452Y-82762001D01*
X61435331Y-82762001D01*
X61428510Y-82762371D01*
X61377648Y-82767895D01*
X61362396Y-82771521D01*
X61241946Y-82816676D01*
X61226351Y-82825214D01*
X61124276Y-82901715D01*
X61111715Y-82914276D01*
X61035214Y-83016351D01*
X61026676Y-83031946D01*
X60981522Y-83152394D01*
X60977895Y-83167649D01*
X60972369Y-83218514D01*
X60972000Y-83225328D01*
X60972000Y-83822885D01*
X58498000Y-83822885D01*
X58498000Y-78709582D01*
X58499500Y-78690197D01*
X58501805Y-78675396D01*
X58501805Y-78675393D01*
X58503186Y-78666524D01*
X58500887Y-78648942D01*
X58500036Y-78625282D01*
X58514423Y-78378278D01*
X58516124Y-78363725D01*
X58563898Y-78092786D01*
X58567277Y-78078529D01*
X58646182Y-77814967D01*
X58651194Y-77801198D01*
X58760161Y-77548586D01*
X58766737Y-77535492D01*
X58904293Y-77297238D01*
X58912344Y-77284996D01*
X58918236Y-77277081D01*
X59076645Y-77064301D01*
X59086043Y-77053101D01*
X59274856Y-76852971D01*
X59285505Y-76842924D01*
X59496264Y-76666077D01*
X59508017Y-76657328D01*
X59705580Y-76527388D01*
X59726754Y-76516649D01*
X59726698Y-76516528D01*
X59730142Y-76514931D01*
X59730794Y-76514600D01*
X59735676Y-76512780D01*
X59740910Y-76509843D01*
X59741163Y-76509745D01*
X59741379Y-76509580D01*
X59746612Y-76506643D01*
X59750429Y-76503646D01*
X59752368Y-76502351D01*
X59755552Y-76500294D01*
X60188543Y-76229757D01*
X60188550Y-76229752D01*
X60190415Y-76228587D01*
X60614132Y-75920827D01*
X61015379Y-75584296D01*
X61016976Y-75582755D01*
X61390621Y-75222158D01*
X61390626Y-75222153D01*
X61392205Y-75220629D01*
X61742782Y-74831593D01*
X61744121Y-74829881D01*
X61744131Y-74829869D01*
X62064051Y-74420808D01*
X62064054Y-74420804D01*
X62065403Y-74419079D01*
X62358503Y-73985092D01*
X62359601Y-73983193D01*
X62359608Y-73983182D01*
X62619550Y-73533653D01*
X62619552Y-73533649D01*
X62620656Y-73531740D01*
X62850589Y-73061227D01*
X63047184Y-72575838D01*
X63209486Y-72077932D01*
X63210017Y-72075813D01*
X63210021Y-72075798D01*
X63336173Y-71572062D01*
X63336174Y-71572057D01*
X63336707Y-71569929D01*
X63337090Y-71567772D01*
X63427846Y-71056451D01*
X63427847Y-71056442D01*
X63428228Y-71054297D01*
X63483605Y-70533542D01*
X63502568Y-70010195D01*
X63485025Y-69486798D01*
X63484715Y-69483799D01*
X63431290Y-68968097D01*
X63431062Y-68965895D01*
X63398587Y-68780000D01*
X103376496Y-68780000D01*
X103396458Y-68969928D01*
X103455473Y-69151556D01*
X103550960Y-69316944D01*
X103555378Y-69321851D01*
X103555379Y-69321852D01*
X103624008Y-69398072D01*
X103678747Y-69458866D01*
X103833248Y-69571118D01*
X103839276Y-69573802D01*
X103839278Y-69573803D01*
X103864306Y-69584946D01*
X104007712Y-69648794D01*
X104083687Y-69664943D01*
X104188056Y-69687128D01*
X104188061Y-69687128D01*
X104194513Y-69688500D01*
X104250406Y-69688500D01*
X104318527Y-69708502D01*
X104339501Y-69725405D01*
X131269595Y-96655500D01*
X131303621Y-96717812D01*
X131306500Y-96744595D01*
X131306500Y-106744117D01*
X131286498Y-106812238D01*
X131232842Y-106858731D01*
X131162568Y-106868835D01*
X131097988Y-106839341D01*
X131086864Y-106828427D01*
X130985675Y-106716045D01*
X130985674Y-106716044D01*
X130981253Y-106711134D01*
X130826752Y-106598882D01*
X130820724Y-106596198D01*
X130820722Y-106596197D01*
X130658319Y-106523891D01*
X130658318Y-106523891D01*
X130652288Y-106521206D01*
X130558888Y-106501353D01*
X130471944Y-106482872D01*
X130471939Y-106482872D01*
X130465487Y-106481500D01*
X130274513Y-106481500D01*
X130268061Y-106482872D01*
X130268056Y-106482872D01*
X130181113Y-106501353D01*
X130087712Y-106521206D01*
X130081682Y-106523891D01*
X130081681Y-106523891D01*
X129919278Y-106596197D01*
X129919276Y-106596198D01*
X129913248Y-106598882D01*
X129758747Y-106711134D01*
X129754326Y-106716044D01*
X129754325Y-106716045D01*
X129667713Y-106812238D01*
X129630960Y-106853056D01*
X129535473Y-107018444D01*
X129476458Y-107200072D01*
X129456496Y-107390000D01*
X129476458Y-107579928D01*
X129535473Y-107761556D01*
X129544620Y-107777398D01*
X129561500Y-107840397D01*
X129561500Y-126292919D01*
X129541498Y-126361040D01*
X129524595Y-126382014D01*
X123984717Y-131921891D01*
X123972847Y-131932356D01*
X123937668Y-131959643D01*
X123937659Y-131959651D01*
X123934530Y-131962078D01*
X122248088Y-133648520D01*
X122210242Y-133674532D01*
X122049278Y-133746197D01*
X122049276Y-133746198D01*
X122043248Y-133748882D01*
X121888747Y-133861134D01*
X121884326Y-133866044D01*
X121884325Y-133866045D01*
X121806853Y-133952087D01*
X121760960Y-134003056D01*
X121665473Y-134168444D01*
X121606458Y-134350072D01*
X121586496Y-134540000D01*
X121587186Y-134546565D01*
X121599761Y-134666206D01*
X121606458Y-134729928D01*
X121665473Y-134911556D01*
X121668776Y-134917277D01*
X121668777Y-134917279D01*
X121680937Y-134938341D01*
X121760960Y-135076944D01*
X121888747Y-135218866D01*
X122043248Y-135331118D01*
X122049276Y-135333802D01*
X122049278Y-135333803D01*
X122203272Y-135402365D01*
X122217712Y-135408794D01*
X122311113Y-135428647D01*
X122398056Y-135447128D01*
X122398061Y-135447128D01*
X122404513Y-135448500D01*
X122595487Y-135448500D01*
X122601939Y-135447128D01*
X122601944Y-135447128D01*
X122688887Y-135428647D01*
X122782288Y-135408794D01*
X122796728Y-135402365D01*
X122950722Y-135333803D01*
X122950724Y-135333802D01*
X122956752Y-135331118D01*
X123111253Y-135218866D01*
X123239040Y-135076944D01*
X123334527Y-134911556D01*
X123336945Y-134904116D01*
X123355354Y-134847458D01*
X123386092Y-134797300D01*
X124965278Y-133218113D01*
X124977147Y-133207648D01*
X125012340Y-133180350D01*
X125012341Y-133180349D01*
X125015470Y-133177922D01*
X130226405Y-127966987D01*
X130288717Y-127932961D01*
X130359532Y-127938026D01*
X130416368Y-127980573D01*
X130441179Y-128047093D01*
X130441500Y-128056082D01*
X130441500Y-131951256D01*
X130421498Y-132019377D01*
X130417436Y-132025317D01*
X130415379Y-132028148D01*
X130410960Y-132033056D01*
X130407659Y-132038774D01*
X130407658Y-132038775D01*
X130398933Y-132053888D01*
X130315473Y-132198444D01*
X130256458Y-132380072D01*
X130236496Y-132570000D01*
X130256458Y-132759928D01*
X130315473Y-132941556D01*
X130410960Y-133106944D01*
X130415378Y-133111851D01*
X130415379Y-133111852D01*
X130459136Y-133160449D01*
X130489854Y-133224456D01*
X130491500Y-133244759D01*
X130491500Y-133795241D01*
X130471498Y-133863362D01*
X130459136Y-133879551D01*
X130410960Y-133933056D01*
X130315473Y-134098444D01*
X130256458Y-134280072D01*
X130255768Y-134286633D01*
X130255768Y-134286635D01*
X130243543Y-134402954D01*
X130236496Y-134470000D01*
X130256458Y-134659928D01*
X130315473Y-134841556D01*
X130318776Y-134847278D01*
X130318777Y-134847279D01*
X130351592Y-134904116D01*
X130410960Y-135006944D01*
X130415378Y-135011851D01*
X130415379Y-135011852D01*
X130534325Y-135143955D01*
X130538747Y-135148866D01*
X130693248Y-135261118D01*
X130699276Y-135263802D01*
X130699278Y-135263803D01*
X130841754Y-135327237D01*
X130867712Y-135338794D01*
X130961113Y-135358647D01*
X131048056Y-135377128D01*
X131048061Y-135377128D01*
X131054513Y-135378500D01*
X131245487Y-135378500D01*
X131251939Y-135377128D01*
X131251944Y-135377128D01*
X131338887Y-135358647D01*
X131432288Y-135338794D01*
X131458246Y-135327237D01*
X131600722Y-135263803D01*
X131600724Y-135263802D01*
X131606752Y-135261118D01*
X131761253Y-135148866D01*
X131765675Y-135143955D01*
X131884621Y-135011852D01*
X131884622Y-135011851D01*
X131889040Y-135006944D01*
X131928648Y-134938341D01*
X133027967Y-134938341D01*
X133030264Y-134996779D01*
X133030390Y-134999998D01*
X133030390Y-135000000D01*
X133037491Y-135180732D01*
X133038853Y-135215409D01*
X133088669Y-135488179D01*
X133176423Y-135751208D01*
X133183610Y-135765591D01*
X133260038Y-135918547D01*
X133300362Y-135999249D01*
X133458014Y-136227353D01*
X133461036Y-136230622D01*
X133643217Y-136427705D01*
X133643222Y-136427710D01*
X133646233Y-136430967D01*
X133861264Y-136606030D01*
X133865082Y-136608329D01*
X133865084Y-136608330D01*
X134025860Y-136705125D01*
X134098816Y-136749048D01*
X134102911Y-136750782D01*
X134102913Y-136750783D01*
X134350048Y-136855431D01*
X134350055Y-136855433D01*
X134354149Y-136857167D01*
X134452962Y-136883367D01*
X134617873Y-136927093D01*
X134617878Y-136927094D01*
X134622170Y-136928232D01*
X134626579Y-136928754D01*
X134626585Y-136928755D01*
X134752326Y-136943637D01*
X134897530Y-136960823D01*
X135174735Y-136954290D01*
X135238738Y-136943637D01*
X135443864Y-136909495D01*
X135443868Y-136909494D01*
X135448254Y-136908764D01*
X135452495Y-136907423D01*
X135452498Y-136907422D01*
X135708383Y-136826496D01*
X135708385Y-136826495D01*
X135712629Y-136825153D01*
X135871117Y-136749048D01*
X135958567Y-136707055D01*
X135958568Y-136707054D01*
X135962586Y-136705125D01*
X135966292Y-136702649D01*
X136189436Y-136553550D01*
X136189440Y-136553547D01*
X136193138Y-136551076D01*
X136399683Y-136366078D01*
X136516294Y-136227353D01*
X136575235Y-136157235D01*
X136575237Y-136157233D01*
X136578102Y-136153824D01*
X136724834Y-135918547D01*
X136836951Y-135664943D01*
X136912216Y-135398072D01*
X136930611Y-135261118D01*
X136948701Y-135126440D01*
X136948702Y-135126432D01*
X136949128Y-135123258D01*
X136950363Y-135083978D01*
X136952901Y-135003222D01*
X136952901Y-135003217D01*
X136953002Y-135000000D01*
X136933418Y-134723411D01*
X136919751Y-134659928D01*
X136875994Y-134456687D01*
X136875994Y-134456685D01*
X136875058Y-134452340D01*
X136779086Y-134192196D01*
X136658005Y-133967793D01*
X136649530Y-133952087D01*
X136647417Y-133948171D01*
X136557538Y-133826485D01*
X136485327Y-133728718D01*
X136485324Y-133728715D01*
X136482678Y-133725132D01*
X136288157Y-133527530D01*
X136267491Y-133511758D01*
X136071274Y-133362010D01*
X136071270Y-133362008D01*
X136067733Y-133359308D01*
X136005068Y-133324214D01*
X135829696Y-133226001D01*
X135829690Y-133225998D01*
X135825806Y-133223823D01*
X135821648Y-133222215D01*
X135821643Y-133222212D01*
X135571357Y-133125383D01*
X135571351Y-133125381D01*
X135567202Y-133123776D01*
X135562870Y-133122772D01*
X135562867Y-133122771D01*
X135451316Y-133096915D01*
X135297081Y-133061166D01*
X135020833Y-133037240D01*
X135016398Y-133037484D01*
X135016394Y-133037484D01*
X134748414Y-133052232D01*
X134748407Y-133052233D01*
X134743971Y-133052477D01*
X134472017Y-133106572D01*
X134210398Y-133198446D01*
X133964334Y-133326266D01*
X133960719Y-133328849D01*
X133960713Y-133328853D01*
X133742356Y-133484893D01*
X133742352Y-133484896D01*
X133738735Y-133487481D01*
X133538103Y-133678875D01*
X133366439Y-133896629D01*
X133338582Y-133944589D01*
X133229404Y-134132552D01*
X133229401Y-134132558D01*
X133227170Y-134136399D01*
X133225500Y-134140522D01*
X133128148Y-134380873D01*
X133123074Y-134393399D01*
X133122003Y-134397712D01*
X133122001Y-134397717D01*
X133057301Y-134658182D01*
X133056228Y-134662503D01*
X133055774Y-134666931D01*
X133055774Y-134666933D01*
X133031355Y-134905271D01*
X133027967Y-134938341D01*
X131928648Y-134938341D01*
X131948408Y-134904116D01*
X131981223Y-134847279D01*
X131981224Y-134847278D01*
X131984527Y-134841556D01*
X132043542Y-134659928D01*
X132063504Y-134470000D01*
X132056457Y-134402954D01*
X132044232Y-134286635D01*
X132044232Y-134286633D01*
X132043542Y-134280072D01*
X131984527Y-134098444D01*
X131889040Y-133933056D01*
X131840864Y-133879551D01*
X131810146Y-133815544D01*
X131808500Y-133795241D01*
X131808500Y-133244759D01*
X131828502Y-133176638D01*
X131840864Y-133160449D01*
X131884621Y-133111852D01*
X131884622Y-133111851D01*
X131889040Y-133106944D01*
X131984527Y-132941556D01*
X132043542Y-132759928D01*
X132063504Y-132570000D01*
X132043542Y-132380072D01*
X131984527Y-132198444D01*
X131901068Y-132053888D01*
X131892342Y-132038775D01*
X131892341Y-132038774D01*
X131889040Y-132033056D01*
X131884621Y-132028148D01*
X131882564Y-132025317D01*
X131858705Y-131958449D01*
X131858500Y-131951256D01*
X131858500Y-127488927D01*
X131858792Y-127480358D01*
X131862210Y-127430225D01*
X131862210Y-127430221D01*
X131862726Y-127422648D01*
X131851736Y-127359681D01*
X131850775Y-127353165D01*
X131844014Y-127297298D01*
X131843102Y-127289758D01*
X131840419Y-127282657D01*
X131839778Y-127280048D01*
X131835313Y-127263728D01*
X131834548Y-127261195D01*
X131833243Y-127253717D01*
X131807552Y-127195190D01*
X131805067Y-127189102D01*
X131785172Y-127136449D01*
X131785171Y-127136447D01*
X131782487Y-127129344D01*
X131778186Y-127123085D01*
X131776949Y-127120720D01*
X131768727Y-127105948D01*
X131767372Y-127103656D01*
X131764316Y-127096695D01*
X131759691Y-127090668D01*
X131759689Y-127090664D01*
X131725407Y-127045987D01*
X131721529Y-127040650D01*
X131689659Y-126994278D01*
X131689658Y-126994277D01*
X131685357Y-126988019D01*
X131638847Y-126946580D01*
X131633571Y-126941600D01*
X131425774Y-126733803D01*
X131215405Y-126523435D01*
X131181380Y-126461122D01*
X131178500Y-126434339D01*
X131178500Y-126396994D01*
X131198502Y-126328873D01*
X131252158Y-126282380D01*
X131322432Y-126272276D01*
X131378561Y-126295058D01*
X131483248Y-126371118D01*
X131489276Y-126373802D01*
X131489278Y-126373803D01*
X131625245Y-126434339D01*
X131657712Y-126448794D01*
X131740292Y-126466347D01*
X131838056Y-126487128D01*
X131838061Y-126487128D01*
X131844513Y-126488500D01*
X132035487Y-126488500D01*
X132041939Y-126487128D01*
X132041944Y-126487128D01*
X132139708Y-126466347D01*
X132222288Y-126448794D01*
X132254755Y-126434339D01*
X132390722Y-126373803D01*
X132390724Y-126373802D01*
X132396752Y-126371118D01*
X132551253Y-126258866D01*
X132555675Y-126253955D01*
X132674621Y-126121852D01*
X132674622Y-126121851D01*
X132679040Y-126116944D01*
X132774527Y-125951556D01*
X132833542Y-125769928D01*
X132853504Y-125580000D01*
X132833542Y-125390072D01*
X132774527Y-125208444D01*
X132742380Y-125152763D01*
X132701500Y-125081958D01*
X132679040Y-125043056D01*
X132605863Y-124961785D01*
X132575147Y-124897779D01*
X132573500Y-124877476D01*
X132573500Y-96508767D01*
X132574027Y-96497584D01*
X132575702Y-96490091D01*
X132573562Y-96422014D01*
X132573500Y-96418055D01*
X132573500Y-96390144D01*
X132572995Y-96386144D01*
X132572062Y-96374301D01*
X132570922Y-96338030D01*
X132570673Y-96330111D01*
X132565021Y-96310657D01*
X132561013Y-96291300D01*
X132559468Y-96279070D01*
X132559468Y-96279069D01*
X132558474Y-96271203D01*
X132555555Y-96263830D01*
X132542196Y-96230088D01*
X132538351Y-96218858D01*
X132528229Y-96184017D01*
X132528229Y-96184016D01*
X132526018Y-96176407D01*
X132521985Y-96169588D01*
X132521983Y-96169583D01*
X132515707Y-96158972D01*
X132507012Y-96141224D01*
X132499552Y-96122383D01*
X132473564Y-96086613D01*
X132467048Y-96076693D01*
X132448580Y-96045465D01*
X132448578Y-96045462D01*
X132444542Y-96038638D01*
X132430221Y-96024317D01*
X132417380Y-96009283D01*
X132410131Y-95999306D01*
X132405472Y-95992893D01*
X132371395Y-95964702D01*
X132362616Y-95956712D01*
X105344246Y-68938341D01*
X129027967Y-68938341D01*
X129030264Y-68996779D01*
X129030390Y-68999998D01*
X129030390Y-69000000D01*
X129037544Y-69182083D01*
X129038853Y-69215409D01*
X129056352Y-69311226D01*
X129087148Y-69479848D01*
X129088669Y-69488179D01*
X129176423Y-69751208D01*
X129178416Y-69755196D01*
X129295593Y-69989704D01*
X129300362Y-69999249D01*
X129302891Y-70002908D01*
X129421402Y-70174379D01*
X129458014Y-70227353D01*
X129461036Y-70230622D01*
X129643217Y-70427705D01*
X129643222Y-70427710D01*
X129646233Y-70430967D01*
X129861264Y-70606030D01*
X129865082Y-70608329D01*
X129865084Y-70608330D01*
X130025860Y-70705125D01*
X130098816Y-70749048D01*
X130102911Y-70750782D01*
X130102913Y-70750783D01*
X130350048Y-70855431D01*
X130350055Y-70855433D01*
X130354149Y-70857167D01*
X130452962Y-70883367D01*
X130617873Y-70927093D01*
X130617878Y-70927094D01*
X130622170Y-70928232D01*
X130626579Y-70928754D01*
X130626585Y-70928755D01*
X130758950Y-70944421D01*
X130897530Y-70960823D01*
X131174735Y-70954290D01*
X131245197Y-70942562D01*
X131443864Y-70909495D01*
X131443868Y-70909494D01*
X131448254Y-70908764D01*
X131452495Y-70907423D01*
X131452498Y-70907422D01*
X131708383Y-70826496D01*
X131708385Y-70826495D01*
X131712629Y-70825153D01*
X131871117Y-70749048D01*
X131958567Y-70707055D01*
X131958568Y-70707054D01*
X131962586Y-70705125D01*
X131966292Y-70702649D01*
X132189436Y-70553550D01*
X132189440Y-70553547D01*
X132193138Y-70551076D01*
X132399683Y-70366078D01*
X132516294Y-70227353D01*
X132575235Y-70157235D01*
X132575237Y-70157233D01*
X132578102Y-70153824D01*
X132724834Y-69918547D01*
X132836951Y-69664943D01*
X132841506Y-69648794D01*
X132879560Y-69513861D01*
X132912216Y-69398072D01*
X132935656Y-69223559D01*
X132948701Y-69126440D01*
X132948702Y-69126432D01*
X132949128Y-69123258D01*
X132949229Y-69120047D01*
X132952901Y-69003222D01*
X132952901Y-69003217D01*
X132953002Y-69000000D01*
X132933418Y-68723411D01*
X132927868Y-68697629D01*
X132875994Y-68456687D01*
X132875994Y-68456685D01*
X132875058Y-68452340D01*
X132779086Y-68192196D01*
X132647417Y-67948171D01*
X132482678Y-67725132D01*
X132288157Y-67527530D01*
X132284617Y-67524828D01*
X132071274Y-67362010D01*
X132071270Y-67362008D01*
X132067733Y-67359308D01*
X131982735Y-67311707D01*
X131829696Y-67226001D01*
X131829690Y-67225998D01*
X131825806Y-67223823D01*
X131821648Y-67222215D01*
X131821643Y-67222212D01*
X131571357Y-67125383D01*
X131571351Y-67125381D01*
X131567202Y-67123776D01*
X131562870Y-67122772D01*
X131562867Y-67122771D01*
X131451316Y-67096915D01*
X131297081Y-67061166D01*
X131020833Y-67037240D01*
X131016398Y-67037484D01*
X131016394Y-67037484D01*
X130748414Y-67052232D01*
X130748407Y-67052233D01*
X130743971Y-67052477D01*
X130472017Y-67106572D01*
X130210398Y-67198446D01*
X129964334Y-67326266D01*
X129960719Y-67328849D01*
X129960713Y-67328853D01*
X129742356Y-67484893D01*
X129742352Y-67484896D01*
X129738735Y-67487481D01*
X129538103Y-67678875D01*
X129366439Y-67896629D01*
X129340277Y-67941670D01*
X129229404Y-68132552D01*
X129229401Y-68132558D01*
X129227170Y-68136399D01*
X129225500Y-68140522D01*
X129151207Y-68323943D01*
X129123074Y-68393399D01*
X129122003Y-68397712D01*
X129122001Y-68397717D01*
X129057301Y-68658182D01*
X129056228Y-68662503D01*
X129055774Y-68666931D01*
X129055774Y-68666933D01*
X129044862Y-68773435D01*
X129027967Y-68938341D01*
X105344246Y-68938341D01*
X105237122Y-68831217D01*
X105203096Y-68768905D01*
X105200907Y-68755292D01*
X105184232Y-68596635D01*
X105184232Y-68596633D01*
X105183542Y-68590072D01*
X105124527Y-68408444D01*
X105029040Y-68243056D01*
X104987007Y-68196373D01*
X104905675Y-68106045D01*
X104905674Y-68106044D01*
X104901253Y-68101134D01*
X104746752Y-67988882D01*
X104740724Y-67986198D01*
X104740722Y-67986197D01*
X104578319Y-67913891D01*
X104578318Y-67913891D01*
X104572288Y-67911206D01*
X104478887Y-67891353D01*
X104391944Y-67872872D01*
X104391939Y-67872872D01*
X104385487Y-67871500D01*
X104194513Y-67871500D01*
X104188061Y-67872872D01*
X104188056Y-67872872D01*
X104101113Y-67891353D01*
X104007712Y-67911206D01*
X104001682Y-67913891D01*
X104001681Y-67913891D01*
X103839278Y-67986197D01*
X103839276Y-67986198D01*
X103833248Y-67988882D01*
X103678747Y-68101134D01*
X103674326Y-68106044D01*
X103674325Y-68106045D01*
X103592994Y-68196373D01*
X103550960Y-68243056D01*
X103455473Y-68408444D01*
X103396458Y-68590072D01*
X103376496Y-68780000D01*
X63398587Y-68780000D01*
X63340941Y-68450016D01*
X63215099Y-67941670D01*
X63199423Y-67893133D01*
X63054821Y-67445404D01*
X63054816Y-67445390D01*
X63054149Y-67443325D01*
X62858872Y-66957405D01*
X62732699Y-66697429D01*
X62631175Y-66488242D01*
X62631170Y-66488232D01*
X62630217Y-66486269D01*
X62629135Y-66484386D01*
X62629127Y-66484371D01*
X62370390Y-66034112D01*
X62370386Y-66034105D01*
X62369295Y-66032207D01*
X62368078Y-66030394D01*
X62368069Y-66030380D01*
X62183304Y-65755196D01*
X62091933Y-65619109D01*
X62088267Y-65613314D01*
X62087285Y-65611664D01*
X62085124Y-65607296D01*
X62081668Y-65602393D01*
X62081544Y-65602149D01*
X62081356Y-65601950D01*
X62077900Y-65597046D01*
X62068586Y-65587409D01*
X62052926Y-65567557D01*
X61920223Y-65359302D01*
X61913011Y-65346364D01*
X61792107Y-65095884D01*
X61786464Y-65082189D01*
X61736859Y-64938341D01*
X63027967Y-64938341D01*
X63030264Y-64996779D01*
X63030390Y-64999998D01*
X63030390Y-65000000D01*
X63035358Y-65126440D01*
X63038853Y-65215409D01*
X63088669Y-65488179D01*
X63176423Y-65751208D01*
X63178416Y-65755196D01*
X63260038Y-65918547D01*
X63300362Y-65999249D01*
X63458014Y-66227353D01*
X63461036Y-66230622D01*
X63643217Y-66427705D01*
X63643222Y-66427710D01*
X63646233Y-66430967D01*
X63861264Y-66606030D01*
X63865082Y-66608329D01*
X63865084Y-66608330D01*
X64025860Y-66705125D01*
X64098816Y-66749048D01*
X64102911Y-66750782D01*
X64102913Y-66750783D01*
X64350048Y-66855431D01*
X64350055Y-66855433D01*
X64354149Y-66857167D01*
X64452962Y-66883367D01*
X64617873Y-66927093D01*
X64617878Y-66927094D01*
X64622170Y-66928232D01*
X64626579Y-66928754D01*
X64626585Y-66928755D01*
X64780009Y-66946914D01*
X64897530Y-66960823D01*
X65174735Y-66954290D01*
X65179133Y-66953558D01*
X65443864Y-66909495D01*
X65443868Y-66909494D01*
X65448254Y-66908764D01*
X65452495Y-66907423D01*
X65452498Y-66907422D01*
X65708383Y-66826496D01*
X65708385Y-66826495D01*
X65712629Y-66825153D01*
X65871117Y-66749048D01*
X65958567Y-66707055D01*
X65958568Y-66707054D01*
X65962586Y-66705125D01*
X66110582Y-66606238D01*
X66189436Y-66553550D01*
X66189440Y-66553547D01*
X66193138Y-66551076D01*
X66399683Y-66366078D01*
X66402547Y-66362671D01*
X66575235Y-66157235D01*
X66575237Y-66157233D01*
X66578102Y-66153824D01*
X66724834Y-65918547D01*
X66732494Y-65901222D01*
X66835151Y-65669014D01*
X66836951Y-65664943D01*
X66912216Y-65398072D01*
X66933531Y-65239380D01*
X66948701Y-65126440D01*
X66948702Y-65126432D01*
X66949128Y-65123258D01*
X66953002Y-65000000D01*
X66933418Y-64723411D01*
X66890917Y-64525999D01*
X66875994Y-64456687D01*
X66875994Y-64456685D01*
X66875058Y-64452340D01*
X66779086Y-64192196D01*
X66734860Y-64110230D01*
X66649530Y-63952087D01*
X66647417Y-63948171D01*
X66570739Y-63844358D01*
X66485327Y-63728718D01*
X66485324Y-63728715D01*
X66482678Y-63725132D01*
X66288157Y-63527530D01*
X66264308Y-63509329D01*
X66071274Y-63362010D01*
X66071270Y-63362008D01*
X66067733Y-63359308D01*
X65951406Y-63294162D01*
X65829696Y-63226001D01*
X65829690Y-63225998D01*
X65825806Y-63223823D01*
X65821648Y-63222215D01*
X65821643Y-63222212D01*
X65571357Y-63125383D01*
X65571351Y-63125381D01*
X65567202Y-63123776D01*
X65562870Y-63122772D01*
X65562867Y-63122771D01*
X65443911Y-63095199D01*
X65297081Y-63061166D01*
X65020833Y-63037240D01*
X65016398Y-63037484D01*
X65016394Y-63037484D01*
X64748414Y-63052232D01*
X64748407Y-63052233D01*
X64743971Y-63052477D01*
X64472017Y-63106572D01*
X64210398Y-63198446D01*
X63964334Y-63326266D01*
X63960719Y-63328849D01*
X63960713Y-63328853D01*
X63742356Y-63484893D01*
X63742352Y-63484896D01*
X63738735Y-63487481D01*
X63538103Y-63678875D01*
X63366439Y-63896629D01*
X63344058Y-63935161D01*
X63229404Y-64132552D01*
X63229401Y-64132558D01*
X63227170Y-64136399D01*
X63225500Y-64140522D01*
X63172693Y-64270897D01*
X63123074Y-64393399D01*
X63122003Y-64397712D01*
X63122001Y-64397717D01*
X63093070Y-64514186D01*
X63056228Y-64662503D01*
X63055774Y-64666931D01*
X63055774Y-64666933D01*
X63046411Y-64758316D01*
X63027967Y-64938341D01*
X61736859Y-64938341D01*
X61695797Y-64819268D01*
X61691799Y-64805004D01*
X61632612Y-64533247D01*
X61630316Y-64518614D01*
X61606257Y-64270897D01*
X61603430Y-64241789D01*
X61602867Y-64226992D01*
X61603505Y-64196373D01*
X61608656Y-63948929D01*
X61609834Y-63934165D01*
X61648214Y-63658699D01*
X61651117Y-63644173D01*
X61681337Y-63528751D01*
X61721561Y-63375115D01*
X61726148Y-63361033D01*
X61726825Y-63359308D01*
X61827682Y-63102100D01*
X61833890Y-63088654D01*
X61965105Y-62843434D01*
X61972840Y-62830820D01*
X62131946Y-62602667D01*
X62141114Y-62591044D01*
X62235649Y-62484680D01*
X62302736Y-62409198D01*
X62322583Y-62391163D01*
X62330037Y-62385718D01*
X62349420Y-62360503D01*
X62360221Y-62348199D01*
X66163516Y-58544905D01*
X66225828Y-58510879D01*
X66252611Y-58508000D01*
X121280418Y-58508000D01*
X121299803Y-58509500D01*
G37*
%TD.AperFunction*%
%TD*%
M02*
