M48
; DRILL file {KiCad (6.0.1)} date Sun Jan 14 12:42:10 2024
; FORMAT={-:-/ absolute / metric / decimal}
; #@! TF.CreationDate,2024-01-14T12:42:10-05:00
; #@! TF.GenerationSoftware,Kicad,Pcbnew,(6.0.1)
; #@! TF.FileFunction,Plated,1,2,PTH
FMAT,2
METRIC
; #@! TA.AperFunction,Plated,PTH,ViaDrill
T1C0.400
; #@! TA.AperFunction,Plated,PTH,ComponentDrill
T2C1.100
%
G90
G05
T1
X66.09Y-79.08
X66.12Y-70.45
X79.25Y-131.92
X82.95Y-125.94
X83.01Y-73.57
X93.29Y-73.57
X103.3Y-62.27
X104.29Y-68.78
X108.72Y-68.32
X108.72Y-70.6
X108.85Y-64.88
X115.37Y-60.31
X115.37Y-73.7
X117.66Y-60.3
X117.66Y-73.69
X120.84Y-123.81
X121.46Y-114.07
X122.06Y-69.46
X122.5Y-134.54
X123.5Y-138.23
X124.09Y-114.11
X126.64Y-133.55
X128.91Y-139.92
X130.37Y-107.39
X131.15Y-132.57
X131.15Y-134.47
X131.42Y-78.26
X131.94Y-125.58
X139.58Y-109.85
T2
X62.305Y-84.095
X65.805Y-84.095
T0
M30
