%TF.GenerationSoftware,KiCad,Pcbnew,(6.0.1)*%
%TF.CreationDate,2024-01-14T12:42:03-05:00*%
%TF.ProjectId,PCB POWER,50434220-504f-4574-9552-2e6b69636164,rev?*%
%TF.SameCoordinates,Original*%
%TF.FileFunction,Copper,L1,Top*%
%TF.FilePolarity,Positive*%
%FSLAX46Y46*%
G04 Gerber Fmt 4.6, Leading zero omitted, Abs format (unit mm)*
G04 Created by KiCad (PCBNEW (6.0.1)) date 2024-01-14 12:42:03*
%MOMM*%
%LPD*%
G01*
G04 APERTURE LIST*
G04 Aperture macros list*
%AMRoundRect*
0 Rectangle with rounded corners*
0 $1 Rounding radius*
0 $2 $3 $4 $5 $6 $7 $8 $9 X,Y pos of 4 corners*
0 Add a 4 corners polygon primitive as box body*
4,1,4,$2,$3,$4,$5,$6,$7,$8,$9,$2,$3,0*
0 Add four circle primitives for the rounded corners*
1,1,$1+$1,$2,$3*
1,1,$1+$1,$4,$5*
1,1,$1+$1,$6,$7*
1,1,$1+$1,$8,$9*
0 Add four rect primitives between the rounded corners*
20,1,$1+$1,$2,$3,$4,$5,0*
20,1,$1+$1,$4,$5,$6,$7,0*
20,1,$1+$1,$6,$7,$8,$9,0*
20,1,$1+$1,$8,$9,$2,$3,0*%
G04 Aperture macros list end*
%TA.AperFunction,SMDPad,CuDef*%
%ADD10RoundRect,0.250000X-0.250000X-0.475000X0.250000X-0.475000X0.250000X0.475000X-0.250000X0.475000X0*%
%TD*%
%TA.AperFunction,SMDPad,CuDef*%
%ADD11C,1.000000*%
%TD*%
%TA.AperFunction,SMDPad,CuDef*%
%ADD12RoundRect,0.250000X-0.475000X0.250000X-0.475000X-0.250000X0.475000X-0.250000X0.475000X0.250000X0*%
%TD*%
%TA.AperFunction,SMDPad,CuDef*%
%ADD13RoundRect,0.250000X0.475000X-0.250000X0.475000X0.250000X-0.475000X0.250000X-0.475000X-0.250000X0*%
%TD*%
%TA.AperFunction,SMDPad,CuDef*%
%ADD14R,0.475000X0.300000*%
%TD*%
%TA.AperFunction,SMDPad,CuDef*%
%ADD15R,1.550000X0.600000*%
%TD*%
%TA.AperFunction,SMDPad,CuDef*%
%ADD16R,1.800000X0.800000*%
%TD*%
%TA.AperFunction,SMDPad,CuDef*%
%ADD17R,0.650000X1.525000*%
%TD*%
%TA.AperFunction,SMDPad,CuDef*%
%ADD18R,0.600000X1.550000*%
%TD*%
%TA.AperFunction,SMDPad,CuDef*%
%ADD19R,0.800000X1.800000*%
%TD*%
%TA.AperFunction,SMDPad,CuDef*%
%ADD20R,1.200000X2.200000*%
%TD*%
%TA.AperFunction,SMDPad,CuDef*%
%ADD21R,5.800000X6.400000*%
%TD*%
%TA.AperFunction,SMDPad,CuDef*%
%ADD22R,1.470000X3.000000*%
%TD*%
%TA.AperFunction,ComponentPad*%
%ADD23R,1.650000X1.650000*%
%TD*%
%TA.AperFunction,ComponentPad*%
%ADD24C,1.650000*%
%TD*%
%TA.AperFunction,SMDPad,CuDef*%
%ADD25R,1.060000X1.060000*%
%TD*%
%TA.AperFunction,SMDPad,CuDef*%
%ADD26R,1.550000X2.350000*%
%TD*%
%TA.AperFunction,SMDPad,CuDef*%
%ADD27R,3.000000X1.650000*%
%TD*%
%TA.AperFunction,ViaPad*%
%ADD28C,0.800000*%
%TD*%
%TA.AperFunction,Conductor*%
%ADD29C,0.600000*%
%TD*%
%TA.AperFunction,Conductor*%
%ADD30C,0.250000*%
%TD*%
%TA.AperFunction,Conductor*%
%ADD31C,0.300000*%
%TD*%
%TA.AperFunction,Conductor*%
%ADD32C,0.700000*%
%TD*%
%TA.AperFunction,Conductor*%
%ADD33C,0.500000*%
%TD*%
%TA.AperFunction,Conductor*%
%ADD34C,1.000000*%
%TD*%
%TA.AperFunction,Conductor*%
%ADD35C,0.400000*%
%TD*%
G04 APERTURE END LIST*
D10*
%TO.P,C2,1,1*%
%TO.N,GND*%
X66560000Y-76710000D03*
%TO.P,C2,2,2*%
%TO.N,Net-(C2-Pad2)*%
X68460000Y-76710000D03*
%TD*%
D11*
%TO.P,TP6,1,1*%
%TO.N,Net-(C2-Pad2)*%
X63830000Y-78250000D03*
%TD*%
D12*
%TO.P,C8,1,1*%
%TO.N,GND*%
X131420000Y-80150000D03*
%TO.P,C8,2,2*%
%TO.N,Net-(C3-Pad1)*%
X131420000Y-82050000D03*
%TD*%
D11*
%TO.P,TP3,1,1*%
%TO.N,BLWR_PID*%
X116210000Y-128630000D03*
%TD*%
D13*
%TO.P,C5,1*%
%TO.N,Net-(C3-Pad1)*%
X124090000Y-117450000D03*
%TO.P,C5,2*%
%TO.N,GND*%
X124090000Y-115550000D03*
%TD*%
D11*
%TO.P,TP7,1,1*%
%TO.N,MTR_2*%
X128410000Y-136620000D03*
%TD*%
D14*
%TO.P,IC1,1,IN1*%
%TO.N,MTR_PID1*%
X127652000Y-132070000D03*
%TO.P,IC1,2,IN2*%
%TO.N,MTR_PID2*%
X127652000Y-132570000D03*
%TO.P,IC1,3,GND*%
%TO.N,GND*%
X127652000Y-133070000D03*
%TO.P,IC1,4,OUT2*%
%TO.N,MTR_2*%
X129328000Y-133070000D03*
%TO.P,IC1,5,VM*%
%TO.N,Net-(C1-Pad2)*%
X129328000Y-132570000D03*
%TO.P,IC1,6,OUT1*%
%TO.N,MTR_1*%
X129328000Y-132070000D03*
%TD*%
D15*
%TO.P,J7,1,1*%
%TO.N,MTR_1*%
X138440000Y-119760000D03*
%TO.P,J7,2,2*%
%TO.N,MTR_2*%
X138440000Y-118760000D03*
D16*
%TO.P,J7,MP1,MP1*%
%TO.N,unconnected-(J7-PadMP1)*%
X135915000Y-121060000D03*
%TO.P,J7,MP2,MP2*%
%TO.N,unconnected-(J7-PadMP2)*%
X135915000Y-117460000D03*
%TD*%
D17*
%TO.P,U1,1,NC_1*%
%TO.N,unconnected-(U1-Pad1)*%
X118295000Y-125552000D03*
%TO.P,U1,2,INA*%
%TO.N,BLWR_PID*%
X119565000Y-125552000D03*
%TO.P,U1,3,GND*%
%TO.N,GND*%
X120835000Y-125552000D03*
%TO.P,U1,4,INB*%
%TO.N,HTR_PID*%
X122105000Y-125552000D03*
%TO.P,U1,5,OUTB*%
%TO.N,Net-(C7-Pad1)*%
X122105000Y-120128000D03*
%TO.P,U1,6,VS*%
%TO.N,Net-(C3-Pad1)*%
X120835000Y-120128000D03*
%TO.P,U1,7,OUTA*%
%TO.N,Net-(C6-Pad1)*%
X119565000Y-120128000D03*
%TO.P,U1,8,NC_2*%
%TO.N,unconnected-(U1-Pad8)*%
X118295000Y-120128000D03*
%TD*%
D11*
%TO.P,TP14,1,1*%
%TO.N,Net-(C3-Pad1)*%
X116050000Y-123870000D03*
%TD*%
D18*
%TO.P,J3,1,1*%
%TO.N,Net-(C1-Pad2)*%
X97630000Y-64100000D03*
%TO.P,J3,2,2*%
%TO.N,Net-(J3-Pad2)*%
X96630000Y-64100000D03*
D19*
%TO.P,J3,MP1,MP1*%
%TO.N,unconnected-(J3-PadMP1)*%
X98930000Y-66625000D03*
%TO.P,J3,MP2,MP2*%
%TO.N,unconnected-(J3-PadMP2)*%
X95330000Y-66625000D03*
%TD*%
D15*
%TO.P,J4,1,1*%
%TO.N,Net-(C3-Pad1)*%
X138520000Y-112830000D03*
%TO.P,J4,2,2*%
%TO.N,GND*%
X138520000Y-111830000D03*
D16*
%TO.P,J4,MP1,MP1*%
%TO.N,unconnected-(J4-PadMP1)*%
X135995000Y-114130000D03*
%TO.P,J4,MP2,MP2*%
%TO.N,unconnected-(J4-PadMP2)*%
X135995000Y-110530000D03*
%TD*%
D20*
%TO.P,Q2,1*%
%TO.N,Net-(C7-Pad1)*%
X80620000Y-74970000D03*
D21*
%TO.P,Q2,2*%
%TO.N,Net-(J3-Pad2)*%
X82900000Y-68670000D03*
D20*
%TO.P,Q2,3*%
%TO.N,GND*%
X85180000Y-74970000D03*
%TD*%
D11*
%TO.P,TP5,1,1*%
%TO.N,GND*%
X61160000Y-78220000D03*
%TD*%
D20*
%TO.P,Q1,1*%
%TO.N,Net-(C6-Pad1)*%
X74690000Y-129000000D03*
D21*
%TO.P,Q1,2*%
%TO.N,Net-(D1-Pad1)*%
X76970000Y-122700000D03*
D20*
%TO.P,Q1,3*%
%TO.N,GND*%
X79250000Y-129000000D03*
%TD*%
D22*
%TO.P,U4,1,1*%
%TO.N,Net-(C3-Pad1)*%
X126130000Y-82060000D03*
%TO.P,U4,2,2*%
%TO.N,Net-(U3-PadA5)*%
X126130000Y-74160000D03*
%TD*%
D18*
%TO.P,J5,1,1*%
%TO.N,MTR_PID1*%
X128310000Y-128295000D03*
%TO.P,J5,2,2*%
%TO.N,MTR_PID2*%
X129310000Y-128295000D03*
%TO.P,J5,3,3*%
%TO.N,BLWR_PID*%
X130310000Y-128295000D03*
%TO.P,J5,4,4*%
%TO.N,HTR_PID*%
X131310000Y-128295000D03*
%TO.P,J5,5,5*%
%TO.N,THERM*%
X132310000Y-128295000D03*
D19*
%TO.P,J5,MP1,MP1*%
%TO.N,unconnected-(J5-PadMP1)*%
X127010000Y-125770000D03*
%TO.P,J5,MP2,MP2*%
%TO.N,unconnected-(J5-PadMP2)*%
X133610000Y-125770000D03*
%TD*%
D18*
%TO.P,J6,1,1*%
%TO.N,THERM*%
X104300000Y-64070000D03*
%TO.P,J6,2,2*%
%TO.N,GND*%
X103300000Y-64070000D03*
D19*
%TO.P,J6,MP1,MP1*%
%TO.N,unconnected-(J6-PadMP1)*%
X105600000Y-66595000D03*
%TO.P,J6,MP2,MP2*%
%TO.N,unconnected-(J6-PadMP2)*%
X102000000Y-66595000D03*
%TD*%
D11*
%TO.P,TP11,1,1*%
%TO.N,Net-(D1-Pad1)*%
X62090000Y-122610000D03*
%TD*%
D13*
%TO.P,C7,1*%
%TO.N,Net-(C7-Pad1)*%
X126690000Y-117400000D03*
%TO.P,C7,2*%
%TO.N,GND*%
X126690000Y-115500000D03*
%TD*%
D11*
%TO.P,TP4,1,1*%
%TO.N,HTR_PID*%
X131620000Y-121510000D03*
%TD*%
%TO.P,TP2,1,1*%
%TO.N,MTR_PID2*%
X122310000Y-128630000D03*
%TD*%
D23*
%TO.P,J1,1,1*%
%TO.N,GND*%
X62305000Y-84095000D03*
D24*
%TO.P,J1,2,2*%
%TO.N,Net-(C2-Pad2)*%
X65805000Y-84095000D03*
%TD*%
D18*
%TO.P,J2,1,1*%
%TO.N,Net-(C1-Pad2)*%
X122500000Y-136470000D03*
%TO.P,J2,2,2*%
%TO.N,Net-(D1-Pad1)*%
X123500000Y-136470000D03*
D19*
%TO.P,J2,MP1,MP1*%
%TO.N,unconnected-(J2-PadMP1)*%
X121200000Y-133945000D03*
%TO.P,J2,MP2,MP2*%
%TO.N,unconnected-(J2-PadMP2)*%
X124800000Y-133945000D03*
%TD*%
D25*
%TO.P,U3,A1,+VIN*%
%TO.N,Net-(C1-Pad2)*%
X110790000Y-62590000D03*
%TO.P,U3,A2,+VIN*%
X113080000Y-62590000D03*
%TO.P,U3,A3,GND*%
%TO.N,GND*%
X115370000Y-62590000D03*
%TO.P,U3,A4,GND*%
X117660000Y-62590000D03*
%TO.P,U3,A5,+VOUT*%
%TO.N,Net-(U3-PadA5)*%
X119950000Y-62590000D03*
%TO.P,U3,B1,GND*%
%TO.N,GND*%
X110790000Y-64880000D03*
%TO.P,U3,B2,GND*%
X113080000Y-64880000D03*
%TO.P,U3,B3,GND*%
X115370000Y-64880000D03*
%TO.P,U3,B4,GND*%
X117660000Y-64880000D03*
%TO.P,U3,B5,+VOUT*%
%TO.N,Net-(U3-PadA5)*%
X119950000Y-64880000D03*
%TO.P,U3,C1,CTRL*%
%TO.N,Net-(C1-Pad2)*%
X110790000Y-67170000D03*
%TO.P,U3,C2,GND*%
%TO.N,GND*%
X113080000Y-67170000D03*
%TO.P,U3,C3,GND*%
X115370000Y-67170000D03*
%TO.P,U3,C4,GND*%
X117660000Y-67170000D03*
%TO.P,U3,C5,Sense*%
%TO.N,Net-(U3-PadA5)*%
X119950000Y-67170000D03*
%TO.P,U3,D1,PGood*%
%TO.N,unconnected-(U3-PadD1)*%
X110790000Y-69460000D03*
%TO.P,U3,D2,GND*%
%TO.N,GND*%
X113080000Y-69460000D03*
%TO.P,U3,D3,GND*%
X115370000Y-69460000D03*
%TO.P,U3,D4,GND*%
X117660000Y-69460000D03*
%TO.P,U3,D5,GND*%
X119950000Y-69460000D03*
%TO.P,U3,E1,SEQ*%
%TO.N,unconnected-(U3-PadE1)*%
X110790000Y-71750000D03*
%TO.P,U3,E2,NC*%
%TO.N,unconnected-(U3-PadE2)*%
X113080000Y-71750000D03*
%TO.P,U3,E3,GND*%
%TO.N,GND*%
X115370000Y-71750000D03*
%TO.P,U3,E4,GND*%
X117660000Y-71750000D03*
%TO.P,U3,E5,Trim*%
%TO.N,unconnected-(U3-PadE5)*%
X119950000Y-71750000D03*
%TD*%
D10*
%TO.P,C4,1,1*%
%TO.N,GND*%
X66590000Y-72650000D03*
%TO.P,C4,2,2*%
%TO.N,Net-(C1-Pad2)*%
X68490000Y-72650000D03*
%TD*%
D11*
%TO.P,TP13,1,1*%
%TO.N,Net-(J3-Pad2)*%
X94020000Y-70730000D03*
%TD*%
D13*
%TO.P,C6,1*%
%TO.N,Net-(C6-Pad1)*%
X118630000Y-117490000D03*
%TO.P,C6,2*%
%TO.N,GND*%
X118630000Y-115590000D03*
%TD*%
D11*
%TO.P,TP8,1,1*%
%TO.N,MTR_1*%
X136340000Y-123830000D03*
%TD*%
D26*
%TO.P,D1,1*%
%TO.N,Net-(D1-Pad1)*%
X66740000Y-111330000D03*
%TO.P,D1,2*%
%TO.N,GND*%
X66740000Y-107030000D03*
%TD*%
D27*
%TO.P,U2,1,1*%
%TO.N,Net-(C2-Pad2)*%
X73040000Y-77440000D03*
%TO.P,U2,2,2*%
%TO.N,Net-(C1-Pad2)*%
X73040000Y-72340000D03*
%TD*%
D13*
%TO.P,C1,1*%
%TO.N,GND*%
X131150000Y-139230000D03*
%TO.P,C1,2*%
%TO.N,Net-(C1-Pad2)*%
X131150000Y-137330000D03*
%TD*%
D11*
%TO.P,TP10,1,1*%
%TO.N,Net-(C6-Pad1)*%
X114700000Y-120510000D03*
%TD*%
%TO.P,TP9,1,1*%
%TO.N,Net-(C1-Pad2)*%
X67920000Y-60740000D03*
%TD*%
%TO.P,TP1,1,1*%
%TO.N,MTR_PID1*%
X127360000Y-138800000D03*
%TD*%
D13*
%TO.P,C3,1*%
%TO.N,Net-(C3-Pad1)*%
X121450000Y-117470000D03*
%TO.P,C3,2*%
%TO.N,GND*%
X121450000Y-115570000D03*
%TD*%
D11*
%TO.P,TP12,1,1*%
%TO.N,Net-(C7-Pad1)*%
X127180000Y-120230000D03*
%TD*%
D28*
%TO.N,Net-(D1-Pad1)*%
X82950000Y-125940000D03*
X123500000Y-138230000D03*
%TO.N,GND*%
X122060000Y-69460000D03*
X66120000Y-70450000D03*
X117660000Y-60300000D03*
X79250000Y-131920000D03*
X139580000Y-109850000D03*
X115370000Y-60310000D03*
X126640000Y-133550000D03*
X66090000Y-79080000D03*
X115370000Y-73700000D03*
X131420000Y-78260000D03*
X120840000Y-123810000D03*
X108850000Y-64880000D03*
X108720000Y-68320000D03*
X124090000Y-114110000D03*
X128910000Y-139920000D03*
X108720000Y-70600000D03*
X103300000Y-62270000D03*
X121460000Y-114070000D03*
X117660000Y-73690000D03*
%TO.N,Net-(C7-Pad1)*%
X93290000Y-73570000D03*
X83010000Y-73570000D03*
%TO.N,Net-(C1-Pad2)*%
X131150000Y-134470000D03*
X130370000Y-107390000D03*
X131150000Y-132570000D03*
X122500000Y-134540000D03*
%TO.N,THERM*%
X131940000Y-125580000D03*
X104290000Y-68780000D03*
%TD*%
D29*
%TO.N,Net-(D1-Pad1)*%
X76970000Y-112490000D02*
X75810000Y-111330000D01*
X75810000Y-111330000D02*
X66740000Y-111330000D01*
X76970000Y-122700000D02*
X76970000Y-112490000D01*
D30*
%TO.N,HTR_PID*%
X130770000Y-121510000D02*
X128480000Y-123800000D01*
X131620000Y-121510000D02*
X130770000Y-121510000D01*
%TO.N,Net-(J3-Pad2)*%
X90920000Y-70730000D02*
X88860000Y-68670000D01*
X94020000Y-70730000D02*
X90920000Y-70730000D01*
D29*
%TO.N,Net-(C1-Pad2)*%
X131340000Y-106420000D02*
X130370000Y-107390000D01*
D30*
%TO.N,MTR_1*%
X137205000Y-124695000D02*
X137205000Y-124765000D01*
D31*
X137205000Y-124765000D02*
X134200000Y-127770000D01*
X139760000Y-122210000D02*
X137205000Y-124765000D01*
D30*
X136340000Y-123830000D02*
X137205000Y-124695000D01*
D31*
X134200000Y-127770000D02*
X134200000Y-128330000D01*
X139760000Y-120100000D02*
X139760000Y-122210000D01*
X139420000Y-119760000D02*
X139760000Y-120100000D01*
X138440000Y-119760000D02*
X139420000Y-119760000D01*
%TO.N,MTR_2*%
X139770000Y-118760000D02*
X138440000Y-118760000D01*
X140360000Y-119350000D02*
X139770000Y-118760000D01*
X135520000Y-127320000D02*
X140360000Y-122480000D01*
X140360000Y-122480000D02*
X140360000Y-119350000D01*
X135520000Y-130020000D02*
X135520000Y-127320000D01*
X131950000Y-133590000D02*
X135520000Y-130020000D01*
X130380000Y-133590000D02*
X131950000Y-133590000D01*
D30*
%TO.N,MTR_1*%
X134200000Y-128330000D02*
X130460000Y-132070000D01*
%TO.N,MTR_PID1*%
X127350000Y-138800000D02*
X127360000Y-138800000D01*
X126890000Y-136090000D02*
X126890000Y-138340000D01*
X126890000Y-138340000D02*
X127350000Y-138800000D01*
X128510000Y-134470000D02*
X126890000Y-136090000D01*
X128510000Y-131530000D02*
X128510000Y-134470000D01*
X128310000Y-131330000D02*
X128510000Y-131530000D01*
X128310000Y-130650000D02*
X128310000Y-131330000D01*
D29*
%TO.N,Net-(D1-Pad1)*%
X82950000Y-125940000D02*
X79710000Y-122700000D01*
D30*
X76880000Y-122610000D02*
X76970000Y-122700000D01*
D29*
X123500000Y-136470000D02*
X123500000Y-138230000D01*
X79710000Y-122700000D02*
X76970000Y-122700000D01*
D30*
X62090000Y-122610000D02*
X76880000Y-122610000D01*
D32*
%TO.N,GND*%
X85180000Y-81400000D02*
X85180000Y-74970000D01*
X66740000Y-91110000D02*
X66740000Y-92740000D01*
D30*
X117660000Y-64880000D02*
X117660000Y-62590000D01*
X113080000Y-69460000D02*
X111940000Y-70600000D01*
X117660000Y-69460000D02*
X119950000Y-69460000D01*
D32*
X62305000Y-84095000D02*
X62305000Y-86675000D01*
D30*
X113080000Y-64880000D02*
X110790000Y-64880000D01*
X115370000Y-62590000D02*
X115370000Y-60310000D01*
X117660000Y-67170000D02*
X115370000Y-67170000D01*
X103300000Y-64070000D02*
X103300000Y-62270000D01*
X115370000Y-69460000D02*
X117660000Y-69460000D01*
X117660000Y-69460000D02*
X117660000Y-71750000D01*
X124090000Y-115550000D02*
X124090000Y-114110000D01*
X113080000Y-64880000D02*
X115370000Y-64880000D01*
X61160000Y-78220000D02*
X61160000Y-82950000D01*
X113080000Y-64880000D02*
X113080000Y-67170000D01*
X113080000Y-67170000D02*
X113080000Y-69460000D01*
D29*
X79250000Y-129000000D02*
X79250000Y-131920000D01*
D32*
X64070000Y-88440000D02*
X66740000Y-91110000D01*
X66740000Y-92740000D02*
X66740000Y-100460000D01*
D30*
X115370000Y-62590000D02*
X117660000Y-62590000D01*
X120835000Y-125552000D02*
X120835000Y-123815000D01*
X117660000Y-64880000D02*
X117660000Y-67170000D01*
X121450000Y-115570000D02*
X124070000Y-115570000D01*
X113080000Y-67170000D02*
X111930000Y-68320000D01*
X115370000Y-71750000D02*
X115370000Y-69460000D01*
X127652000Y-133070000D02*
X127120000Y-133070000D01*
X131150000Y-139230000D02*
X129600000Y-139230000D01*
X115370000Y-64880000D02*
X117660000Y-64880000D01*
D32*
X62305000Y-86675000D02*
X64070000Y-88440000D01*
D30*
X66830000Y-92830000D02*
X66740000Y-92740000D01*
X120835000Y-123815000D02*
X120840000Y-123810000D01*
X118630000Y-115590000D02*
X121430000Y-115590000D01*
D32*
X85180000Y-81420000D02*
X73770000Y-92830000D01*
X66740000Y-100460000D02*
X66740000Y-107030000D01*
D30*
X129600000Y-139230000D02*
X128910000Y-139920000D01*
X85190000Y-81410000D02*
X85180000Y-81400000D01*
X117660000Y-71750000D02*
X115370000Y-71750000D01*
D33*
X131420000Y-78260000D02*
X131420000Y-80150000D01*
D30*
X121430000Y-115590000D02*
X121450000Y-115570000D01*
X119950000Y-69460000D02*
X122060000Y-69460000D01*
X115370000Y-69460000D02*
X115370000Y-67170000D01*
X121450000Y-115570000D02*
X121450000Y-114080000D01*
X121450000Y-114080000D02*
X121460000Y-114070000D01*
X117660000Y-69460000D02*
X117660000Y-67170000D01*
X66600000Y-72640000D02*
X66590000Y-72650000D01*
D29*
X66600000Y-70930000D02*
X66600000Y-72640000D01*
D30*
X124070000Y-115570000D02*
X124090000Y-115550000D01*
X111930000Y-68320000D02*
X108720000Y-68320000D01*
X115370000Y-71750000D02*
X115370000Y-73700000D01*
X138520000Y-110910000D02*
X139580000Y-109850000D01*
X117660000Y-62590000D02*
X117660000Y-60300000D01*
X117660000Y-71750000D02*
X117660000Y-73690000D01*
X113080000Y-69460000D02*
X115370000Y-69460000D01*
X113080000Y-67170000D02*
X115370000Y-67170000D01*
X138520000Y-111830000D02*
X138520000Y-110910000D01*
D29*
X66120000Y-70450000D02*
X66600000Y-70930000D01*
D30*
X61160000Y-82950000D02*
X62305000Y-84095000D01*
D29*
X66560000Y-76710000D02*
X66560000Y-78610000D01*
D30*
X110790000Y-64880000D02*
X108850000Y-64880000D01*
X127120000Y-133070000D02*
X126640000Y-133550000D01*
D32*
X73770000Y-92830000D02*
X66830000Y-92830000D01*
D30*
X111940000Y-70600000D02*
X108720000Y-70600000D01*
X115370000Y-64880000D02*
X115370000Y-67170000D01*
X126640000Y-115550000D02*
X126690000Y-115500000D01*
X85180000Y-81400000D02*
X85180000Y-81420000D01*
D29*
X66560000Y-78610000D02*
X66090000Y-79080000D01*
D30*
X115370000Y-64880000D02*
X115370000Y-62590000D01*
X124090000Y-115550000D02*
X126640000Y-115550000D01*
D34*
%TO.N,Net-(C2-Pad2)*%
X69900000Y-76710000D02*
X68460000Y-76710000D01*
X68460000Y-76710000D02*
X68460000Y-81440000D01*
X68460000Y-81440000D02*
X65805000Y-84095000D01*
X69900000Y-76710000D02*
X70630000Y-77440000D01*
X70630000Y-77440000D02*
X73040000Y-77440000D01*
D30*
X63830000Y-78250000D02*
X63830000Y-82120000D01*
X63830000Y-82120000D02*
X65805000Y-84095000D01*
%TO.N,MTR_PID1*%
X128310000Y-130420000D02*
X128310000Y-130650000D01*
X127650000Y-131310000D02*
X127652000Y-131312000D01*
X128310000Y-130650000D02*
X127650000Y-131310000D01*
X127652000Y-131312000D02*
X127652000Y-132070000D01*
X128310000Y-128295000D02*
X128310000Y-130420000D01*
D32*
%TO.N,Net-(J3-Pad2)*%
X88860000Y-68670000D02*
X82900000Y-68670000D01*
X93430000Y-64100000D02*
X88860000Y-68670000D01*
X94280000Y-64100000D02*
X93430000Y-64100000D01*
D29*
X82900000Y-68670000D02*
X82900000Y-69070000D01*
X82900000Y-68670000D02*
X82900000Y-68970000D01*
D32*
X96630000Y-64100000D02*
X94280000Y-64100000D01*
D30*
%TO.N,Net-(C3-Pad1)*%
X131420000Y-82050000D02*
X131410000Y-82060000D01*
D33*
X120835000Y-121585000D02*
X120835000Y-120128000D01*
D30*
X117220000Y-122700000D02*
X119720000Y-122700000D01*
D33*
X128480000Y-122070000D02*
X121290000Y-122070000D01*
X126130000Y-82060000D02*
X126130000Y-87810000D01*
X131410000Y-82060000D02*
X126130000Y-82060000D01*
X134790000Y-112830000D02*
X138520000Y-112830000D01*
X133120000Y-111160000D02*
X134790000Y-112830000D01*
X126130000Y-87810000D02*
X133120000Y-94800000D01*
X120835000Y-118085000D02*
X121450000Y-117470000D01*
D30*
X116050000Y-123870000D02*
X117220000Y-122700000D01*
X124070000Y-117470000D02*
X124090000Y-117450000D01*
D33*
X133120000Y-117430000D02*
X128480000Y-122070000D01*
X133120000Y-94800000D02*
X133120000Y-111160000D01*
X120820000Y-121600000D02*
X120835000Y-121585000D01*
X121290000Y-122070000D02*
X120820000Y-121600000D01*
X120835000Y-120128000D02*
X120835000Y-118085000D01*
X133120000Y-111160000D02*
X133120000Y-117430000D01*
D30*
X119720000Y-122700000D02*
X120835000Y-121585000D01*
D33*
X121450000Y-117470000D02*
X124070000Y-117470000D01*
D30*
%TO.N,Net-(C6-Pad1)*%
X114700000Y-120510000D02*
X115980000Y-121790000D01*
D35*
X78990000Y-138930000D02*
X74690000Y-134630000D01*
X74690000Y-134630000D02*
X74690000Y-129000000D01*
X98840000Y-138930000D02*
X78990000Y-138930000D01*
D30*
X119565000Y-120128000D02*
X119565000Y-118425000D01*
X119570000Y-121400000D02*
X119565000Y-121395000D01*
D35*
X115980000Y-121790000D02*
X119180000Y-121790000D01*
X119565000Y-121395000D02*
X119565000Y-120128000D01*
X119180000Y-121790000D02*
X119570000Y-121400000D01*
D30*
X119565000Y-118425000D02*
X118630000Y-117490000D01*
D35*
X115980000Y-121790000D02*
X98840000Y-138930000D01*
%TO.N,Net-(C7-Pad1)*%
X97050000Y-69810000D02*
X93290000Y-73570000D01*
X130230000Y-103430000D02*
X128530000Y-105130000D01*
X82020000Y-73570000D02*
X80620000Y-74970000D01*
X130230000Y-96520000D02*
X130230000Y-103430000D01*
D30*
X127180000Y-120230000D02*
X126065000Y-119115000D01*
D35*
X122105000Y-120128000D02*
X125032000Y-120128000D01*
X125032000Y-120128000D02*
X126065000Y-119095000D01*
D30*
X126065000Y-119115000D02*
X126065000Y-119095000D01*
D35*
X128120000Y-117400000D02*
X126690000Y-117400000D01*
X128530000Y-116990000D02*
X128120000Y-117400000D01*
X126065000Y-119095000D02*
X126690000Y-118470000D01*
X126690000Y-118470000D02*
X126690000Y-117400000D01*
X103520000Y-69810000D02*
X97050000Y-69810000D01*
X83010000Y-73570000D02*
X82020000Y-73570000D01*
X103520000Y-69810000D02*
X130230000Y-96520000D01*
X128530000Y-105130000D02*
X128530000Y-116990000D01*
D30*
%TO.N,MTR_PID2*%
X126400000Y-128430000D02*
X126400000Y-132110000D01*
X126200000Y-128630000D02*
X126400000Y-128430000D01*
X129310000Y-127320000D02*
X128900000Y-126910000D01*
X126400000Y-132110000D02*
X126860000Y-132570000D01*
X122310000Y-128630000D02*
X126200000Y-128630000D01*
X127920000Y-126910000D02*
X126400000Y-128430000D01*
X128900000Y-126910000D02*
X127920000Y-126910000D01*
X129310000Y-128295000D02*
X129310000Y-127320000D01*
X126860000Y-132570000D02*
X127652000Y-132570000D01*
%TO.N,MTR_2*%
X128410000Y-136620000D02*
X128410000Y-135560000D01*
D31*
X129860000Y-133070000D02*
X130380000Y-133590000D01*
X129328000Y-133070000D02*
X129860000Y-133070000D01*
D30*
X128410000Y-135560000D02*
X130380000Y-133590000D01*
D33*
%TO.N,Net-(C1-Pad2)*%
X113080000Y-62590000D02*
X110790000Y-62590000D01*
X122500000Y-136470000D02*
X122500000Y-134540000D01*
D29*
X97630000Y-64100000D02*
X99190000Y-64100000D01*
X107340000Y-71550000D02*
X131340000Y-95550000D01*
D34*
X107340000Y-62990000D02*
X107340000Y-64090000D01*
X104140000Y-59790000D02*
X106975000Y-62625000D01*
D33*
X107010000Y-62590000D02*
X106975000Y-62625000D01*
D34*
X70520000Y-72340000D02*
X73040000Y-72340000D01*
X107340000Y-64090000D02*
X107340000Y-67170000D01*
X106975000Y-62625000D02*
X107340000Y-62990000D01*
X70210000Y-72650000D02*
X70520000Y-72340000D01*
D29*
X100240000Y-63050000D02*
X100240000Y-59790000D01*
D31*
X129328000Y-132570000D02*
X131150000Y-132570000D01*
D33*
X110790000Y-62590000D02*
X107010000Y-62590000D01*
D34*
X100240000Y-59790000D02*
X104140000Y-59790000D01*
X68800000Y-63590000D02*
X68800000Y-70620000D01*
D30*
X67920000Y-60740000D02*
X69785000Y-62605000D01*
D34*
X70210000Y-72650000D02*
X68490000Y-72650000D01*
X69785000Y-62605000D02*
X68800000Y-63590000D01*
D29*
X99190000Y-64100000D02*
X100240000Y-63050000D01*
D30*
X131150000Y-137330000D02*
X131150000Y-134470000D01*
D29*
X107340000Y-67170000D02*
X107340000Y-71550000D01*
D34*
X100240000Y-59790000D02*
X72600000Y-59790000D01*
D29*
X131340000Y-95550000D02*
X131340000Y-106420000D01*
D34*
X72600000Y-59790000D02*
X69785000Y-62605000D01*
D33*
X107340000Y-67170000D02*
X110790000Y-67170000D01*
D34*
X68800000Y-70620000D02*
X70520000Y-72340000D01*
D31*
%TO.N,MTR_1*%
X129328000Y-132070000D02*
X130460000Y-132070000D01*
D33*
%TO.N,Net-(U3-PadA5)*%
X122630000Y-67170000D02*
X119950000Y-67170000D01*
X123170000Y-64880000D02*
X126130000Y-67840000D01*
X119950000Y-62590000D02*
X123360000Y-62590000D01*
X126130000Y-70670000D02*
X126130000Y-74160000D01*
X119950000Y-64880000D02*
X123170000Y-64880000D01*
X123360000Y-62590000D02*
X126130000Y-65360000D01*
X122630000Y-67170000D02*
X126130000Y-70670000D01*
X119950000Y-62590000D02*
X119950000Y-64880000D01*
X126130000Y-67840000D02*
X126130000Y-70670000D01*
X126130000Y-65360000D02*
X126130000Y-67840000D01*
X119950000Y-64880000D02*
X119950000Y-67170000D01*
D30*
%TO.N,THERM*%
X132310000Y-126460000D02*
X132310000Y-128295000D01*
X104300000Y-68770000D02*
X104300000Y-64070000D01*
X104290000Y-68780000D02*
X104300000Y-68770000D01*
X131940000Y-126090000D02*
X132310000Y-126460000D01*
X131940000Y-125580000D02*
X131940000Y-126090000D01*
%TO.N,BLWR_PID*%
X119565000Y-126655000D02*
X119565000Y-125552000D01*
X130310000Y-126660000D02*
X127990000Y-124340000D01*
X125840000Y-124340000D02*
X122960000Y-127220000D01*
X120120000Y-127220000D02*
X119560000Y-126660000D01*
X130310000Y-128295000D02*
X130310000Y-126660000D01*
X117590000Y-128630000D02*
X119560000Y-126660000D01*
X119560000Y-126660000D02*
X119565000Y-126655000D01*
X122960000Y-127220000D02*
X120120000Y-127220000D01*
X127990000Y-124340000D02*
X125840000Y-124340000D01*
X116210000Y-128630000D02*
X117590000Y-128630000D01*
%TO.N,HTR_PID*%
X123362000Y-125552000D02*
X122105000Y-125552000D01*
X129090000Y-124410000D02*
X128480000Y-123800000D01*
X127980000Y-123800000D02*
X125130000Y-123800000D01*
X125130000Y-123800000D02*
X123370000Y-125560000D01*
X131310000Y-128295000D02*
X131310000Y-126630000D01*
X123370000Y-125560000D02*
X123362000Y-125552000D01*
X131310000Y-126630000D02*
X129090000Y-124410000D01*
X128480000Y-123800000D02*
X127980000Y-123800000D01*
%TD*%
%TA.AperFunction,Conductor*%
%TO.N,Net-(D1-Pad1)*%
G36*
X80075931Y-113630002D02*
G01*
X80096905Y-113646905D01*
X86103123Y-119653123D01*
X86137149Y-119715435D01*
X86140028Y-119742150D01*
X86142188Y-123718115D01*
X86147851Y-134142759D01*
X86149932Y-137973932D01*
X86129967Y-138042063D01*
X86076337Y-138088585D01*
X86023932Y-138100000D01*
X79442215Y-138100000D01*
X79374094Y-138079998D01*
X79353090Y-138063066D01*
X75435375Y-134142759D01*
X75401371Y-134080436D01*
X75398500Y-134053693D01*
X75398500Y-130689754D01*
X75418502Y-130621633D01*
X75472158Y-130575140D01*
X75480270Y-130571772D01*
X75528297Y-130553767D01*
X75536705Y-130550615D01*
X75653261Y-130463261D01*
X75740615Y-130346705D01*
X75791745Y-130210316D01*
X75798500Y-130148134D01*
X78141500Y-130148134D01*
X78148255Y-130210316D01*
X78199385Y-130346705D01*
X78286739Y-130463261D01*
X78293919Y-130468642D01*
X78391065Y-130541449D01*
X78433580Y-130598308D01*
X78441500Y-130642275D01*
X78441500Y-131469603D01*
X78424620Y-131532602D01*
X78415473Y-131548444D01*
X78356458Y-131730072D01*
X78336496Y-131920000D01*
X78356458Y-132109928D01*
X78415473Y-132291556D01*
X78510960Y-132456944D01*
X78515378Y-132461851D01*
X78515379Y-132461852D01*
X78557208Y-132508308D01*
X78638747Y-132598866D01*
X78793248Y-132711118D01*
X78799276Y-132713802D01*
X78799278Y-132713803D01*
X78961681Y-132786109D01*
X78967712Y-132788794D01*
X79061112Y-132808647D01*
X79148056Y-132827128D01*
X79148061Y-132827128D01*
X79154513Y-132828500D01*
X79345487Y-132828500D01*
X79351939Y-132827128D01*
X79351944Y-132827128D01*
X79438888Y-132808647D01*
X79532288Y-132788794D01*
X79538319Y-132786109D01*
X79700722Y-132713803D01*
X79700724Y-132713802D01*
X79706752Y-132711118D01*
X79861253Y-132598866D01*
X79942792Y-132508308D01*
X79984621Y-132461852D01*
X79984622Y-132461851D01*
X79989040Y-132456944D01*
X80084527Y-132291556D01*
X80143542Y-132109928D01*
X80163504Y-131920000D01*
X80143542Y-131730072D01*
X80084527Y-131548444D01*
X80075380Y-131532602D01*
X80058500Y-131469603D01*
X80058500Y-130642275D01*
X80078502Y-130574154D01*
X80108935Y-130541449D01*
X80206081Y-130468642D01*
X80213261Y-130463261D01*
X80300615Y-130346705D01*
X80351745Y-130210316D01*
X80358500Y-130148134D01*
X80358500Y-127851866D01*
X80351745Y-127789684D01*
X80300615Y-127653295D01*
X80213261Y-127536739D01*
X80096705Y-127449385D01*
X79960316Y-127398255D01*
X79898134Y-127391500D01*
X78601866Y-127391500D01*
X78539684Y-127398255D01*
X78403295Y-127449385D01*
X78286739Y-127536739D01*
X78199385Y-127653295D01*
X78148255Y-127789684D01*
X78141500Y-127851866D01*
X78141500Y-130148134D01*
X75798500Y-130148134D01*
X75798500Y-127851866D01*
X75791745Y-127789684D01*
X75740615Y-127653295D01*
X75653261Y-127536739D01*
X75536705Y-127449385D01*
X75400316Y-127398255D01*
X75338134Y-127391500D01*
X74041866Y-127391500D01*
X73979684Y-127398255D01*
X73843295Y-127449385D01*
X73726739Y-127536739D01*
X73639385Y-127653295D01*
X73588255Y-127789684D01*
X73581500Y-127851866D01*
X73581500Y-130148134D01*
X73588255Y-130210316D01*
X73639385Y-130346705D01*
X73726739Y-130463261D01*
X73843295Y-130550615D01*
X73851703Y-130553767D01*
X73899730Y-130571772D01*
X73956495Y-130614414D01*
X73981194Y-130680976D01*
X73981500Y-130689754D01*
X73981500Y-132383590D01*
X73961498Y-132451711D01*
X73907842Y-132498204D01*
X73837568Y-132508308D01*
X73772988Y-132478814D01*
X73766375Y-132472656D01*
X73207524Y-131913435D01*
X67241949Y-125943915D01*
X73570000Y-125943915D01*
X73570369Y-125950729D01*
X73575789Y-126000621D01*
X73579414Y-126015867D01*
X73623767Y-126134177D01*
X73632299Y-126149763D01*
X73707430Y-126250009D01*
X73719991Y-126262570D01*
X73820237Y-126337701D01*
X73835823Y-126346233D01*
X73954133Y-126390586D01*
X73969379Y-126394211D01*
X74019271Y-126399631D01*
X74026085Y-126400000D01*
X75951885Y-126400000D01*
X75967124Y-126395525D01*
X75968329Y-126394135D01*
X75970000Y-126386452D01*
X75970000Y-126381885D01*
X77970000Y-126381885D01*
X77974475Y-126397124D01*
X77975865Y-126398329D01*
X77983548Y-126400000D01*
X79913915Y-126400000D01*
X79920729Y-126399631D01*
X79970621Y-126394211D01*
X79985867Y-126390586D01*
X80104177Y-126346233D01*
X80119763Y-126337701D01*
X80220009Y-126262570D01*
X80232570Y-126250009D01*
X80307701Y-126149763D01*
X80316233Y-126134177D01*
X80360586Y-126015867D01*
X80364211Y-126000621D01*
X80369631Y-125950729D01*
X80370000Y-125943915D01*
X80370000Y-123718115D01*
X80365525Y-123702876D01*
X80364135Y-123701671D01*
X80356452Y-123700000D01*
X77988115Y-123700000D01*
X77972876Y-123704475D01*
X77971671Y-123705865D01*
X77970000Y-123713548D01*
X77970000Y-126381885D01*
X75970000Y-126381885D01*
X75970000Y-123718115D01*
X75965525Y-123702876D01*
X75964135Y-123701671D01*
X75956452Y-123700000D01*
X73588115Y-123700000D01*
X73572876Y-123704475D01*
X73571671Y-123705865D01*
X73570000Y-123713548D01*
X73570000Y-125943915D01*
X67241949Y-125943915D01*
X64306818Y-123006843D01*
X64272815Y-122944521D01*
X64269944Y-122917913D01*
X64268629Y-121686452D01*
X64268624Y-121681885D01*
X73570000Y-121681885D01*
X73574475Y-121697124D01*
X73575865Y-121698329D01*
X73583548Y-121700000D01*
X75951885Y-121700000D01*
X75967124Y-121695525D01*
X75968329Y-121694135D01*
X75970000Y-121686452D01*
X75970000Y-121681885D01*
X77970000Y-121681885D01*
X77974475Y-121697124D01*
X77975865Y-121698329D01*
X77983548Y-121700000D01*
X80351885Y-121700000D01*
X80367124Y-121695525D01*
X80368329Y-121694135D01*
X80370000Y-121686452D01*
X80370000Y-119456085D01*
X80369631Y-119449271D01*
X80364211Y-119399379D01*
X80360586Y-119384133D01*
X80316233Y-119265823D01*
X80307701Y-119250237D01*
X80232570Y-119149991D01*
X80220009Y-119137430D01*
X80119763Y-119062299D01*
X80104177Y-119053767D01*
X79985867Y-119009414D01*
X79970621Y-119005789D01*
X79920729Y-119000369D01*
X79913915Y-119000000D01*
X77988115Y-119000000D01*
X77972876Y-119004475D01*
X77971671Y-119005865D01*
X77970000Y-119013548D01*
X77970000Y-121681885D01*
X75970000Y-121681885D01*
X75970000Y-119018115D01*
X75965525Y-119002876D01*
X75964135Y-119001671D01*
X75956452Y-119000000D01*
X74026085Y-119000000D01*
X74019271Y-119000369D01*
X73969379Y-119005789D01*
X73954133Y-119009414D01*
X73835823Y-119053767D01*
X73820237Y-119062299D01*
X73719991Y-119137430D01*
X73707430Y-119149991D01*
X73632299Y-119250237D01*
X73623767Y-119265823D01*
X73579414Y-119384133D01*
X73575789Y-119399379D01*
X73570369Y-119449271D01*
X73570000Y-119456085D01*
X73570000Y-121681885D01*
X64268624Y-121681885D01*
X64260135Y-113736135D01*
X64280064Y-113667993D01*
X64333670Y-113621442D01*
X64386135Y-113610000D01*
X80007810Y-113610000D01*
X80075931Y-113630002D01*
G37*
%TD.AperFunction*%
%TD*%
%TA.AperFunction,Conductor*%
%TO.N,Net-(J3-Pad2)*%
G36*
X92512121Y-61080002D02*
G01*
X92558614Y-61133658D01*
X92570000Y-61186000D01*
X92570000Y-72967084D01*
X92548945Y-73031893D01*
X92550960Y-73033056D01*
X92455473Y-73198444D01*
X92396458Y-73380072D01*
X92395768Y-73386633D01*
X92395768Y-73386635D01*
X92378402Y-73551862D01*
X92376496Y-73570000D01*
X92377186Y-73576565D01*
X92395655Y-73752285D01*
X92396458Y-73759928D01*
X92455473Y-73941556D01*
X92458776Y-73947278D01*
X92458777Y-73947279D01*
X92550960Y-74106944D01*
X92548945Y-74108107D01*
X92570000Y-74172916D01*
X92570000Y-74697632D01*
X92549998Y-74765753D01*
X92532881Y-74786940D01*
X88899641Y-78402747D01*
X86253381Y-81036309D01*
X86190987Y-81070185D01*
X86120184Y-81064949D01*
X86063450Y-81022266D01*
X86038800Y-80955686D01*
X86038500Y-80947000D01*
X86038500Y-76574802D01*
X86058502Y-76506681D01*
X86088935Y-76473976D01*
X86136081Y-76438642D01*
X86143261Y-76433261D01*
X86230615Y-76316705D01*
X86281745Y-76180316D01*
X86288500Y-76118134D01*
X86288500Y-73821866D01*
X86281745Y-73759684D01*
X86230615Y-73623295D01*
X86143261Y-73506739D01*
X86026705Y-73419385D01*
X85890316Y-73368255D01*
X85828134Y-73361500D01*
X84531866Y-73361500D01*
X84469684Y-73368255D01*
X84333295Y-73419385D01*
X84216739Y-73506739D01*
X84211358Y-73513919D01*
X84146310Y-73600712D01*
X84089451Y-73643227D01*
X84018632Y-73648253D01*
X83956339Y-73614193D01*
X83922349Y-73551862D01*
X83920174Y-73538317D01*
X83904232Y-73386635D01*
X83904232Y-73386633D01*
X83903542Y-73380072D01*
X83844527Y-73198444D01*
X83749040Y-73033056D01*
X83642684Y-72914935D01*
X83625675Y-72896045D01*
X83625674Y-72896044D01*
X83621253Y-72891134D01*
X83466752Y-72778882D01*
X83460724Y-72776198D01*
X83460722Y-72776197D01*
X83298319Y-72703891D01*
X83298318Y-72703891D01*
X83292288Y-72701206D01*
X83198888Y-72681353D01*
X83111944Y-72662872D01*
X83111939Y-72662872D01*
X83105487Y-72661500D01*
X82914513Y-72661500D01*
X82908061Y-72662872D01*
X82908056Y-72662872D01*
X82821112Y-72681353D01*
X82727712Y-72701206D01*
X82721682Y-72703891D01*
X82721681Y-72703891D01*
X82559278Y-72776197D01*
X82559276Y-72776198D01*
X82553248Y-72778882D01*
X82547907Y-72782762D01*
X82547906Y-72782763D01*
X82472656Y-72837436D01*
X82405789Y-72861294D01*
X82398595Y-72861500D01*
X82048912Y-72861500D01*
X82040342Y-72861208D01*
X81990224Y-72857791D01*
X81990220Y-72857791D01*
X81982648Y-72857275D01*
X81975171Y-72858580D01*
X81975170Y-72858580D01*
X81948692Y-72863201D01*
X81919697Y-72868262D01*
X81913179Y-72869223D01*
X81849758Y-72876898D01*
X81842657Y-72879581D01*
X81840048Y-72880222D01*
X81823738Y-72884685D01*
X81821202Y-72885450D01*
X81813716Y-72886757D01*
X81806759Y-72889811D01*
X81755205Y-72912442D01*
X81749101Y-72914933D01*
X81689344Y-72937513D01*
X81683081Y-72941817D01*
X81680715Y-72943054D01*
X81665903Y-72951299D01*
X81663649Y-72952632D01*
X81656695Y-72955685D01*
X81605998Y-72994587D01*
X81600668Y-72998459D01*
X81554280Y-73030339D01*
X81554275Y-73030344D01*
X81548019Y-73034643D01*
X81542968Y-73040313D01*
X81542966Y-73040314D01*
X81506565Y-73081170D01*
X81501584Y-73086446D01*
X81263435Y-73324595D01*
X81201123Y-73358621D01*
X81174340Y-73361500D01*
X79971866Y-73361500D01*
X79909684Y-73368255D01*
X79773295Y-73419385D01*
X79656739Y-73506739D01*
X79569385Y-73623295D01*
X79518255Y-73759684D01*
X79511500Y-73821866D01*
X79511500Y-76118134D01*
X79518255Y-76180316D01*
X79569385Y-76316705D01*
X79656739Y-76433261D01*
X79773295Y-76520615D01*
X79909684Y-76571745D01*
X79971866Y-76578500D01*
X81268134Y-76578500D01*
X81330316Y-76571745D01*
X81466705Y-76520615D01*
X81583261Y-76433261D01*
X81670615Y-76316705D01*
X81721745Y-76180316D01*
X81728500Y-76118134D01*
X81728500Y-74915660D01*
X81748502Y-74847539D01*
X81765405Y-74826565D01*
X82276565Y-74315405D01*
X82338877Y-74281379D01*
X82365660Y-74278500D01*
X82398595Y-74278500D01*
X82466716Y-74298502D01*
X82472656Y-74302564D01*
X82553248Y-74361118D01*
X82559276Y-74363802D01*
X82559278Y-74363803D01*
X82721681Y-74436109D01*
X82727712Y-74438794D01*
X82821112Y-74458647D01*
X82908056Y-74477128D01*
X82908061Y-74477128D01*
X82914513Y-74478500D01*
X83105487Y-74478500D01*
X83111939Y-74477128D01*
X83111944Y-74477128D01*
X83198888Y-74458647D01*
X83292288Y-74438794D01*
X83298319Y-74436109D01*
X83460722Y-74363803D01*
X83460724Y-74363802D01*
X83466752Y-74361118D01*
X83621253Y-74248866D01*
X83749040Y-74106944D01*
X83836381Y-73955665D01*
X83887763Y-73906672D01*
X83957477Y-73893236D01*
X84023388Y-73919622D01*
X84064570Y-73977454D01*
X84071500Y-74018665D01*
X84071500Y-76118134D01*
X84078255Y-76180316D01*
X84129385Y-76316705D01*
X84216739Y-76433261D01*
X84223919Y-76438642D01*
X84271065Y-76473976D01*
X84313580Y-76530835D01*
X84321500Y-76574802D01*
X84321500Y-81012207D01*
X84301498Y-81080328D01*
X84284595Y-81101302D01*
X73451302Y-91934595D01*
X73388990Y-91968621D01*
X73362207Y-91971500D01*
X69227644Y-91971500D01*
X69159523Y-91951498D01*
X69113030Y-91897842D01*
X69101645Y-91845097D01*
X69132295Y-82251722D01*
X69152514Y-82183666D01*
X69167663Y-82165127D01*
X69169025Y-82164032D01*
X69201292Y-82125578D01*
X69204472Y-82121931D01*
X69206115Y-82120119D01*
X69208309Y-82117925D01*
X69235642Y-82084651D01*
X69236348Y-82083800D01*
X69292195Y-82017244D01*
X69296154Y-82012526D01*
X69298722Y-82007856D01*
X69302103Y-82003739D01*
X69345977Y-81921914D01*
X69346606Y-81920755D01*
X69388462Y-81844619D01*
X69388465Y-81844611D01*
X69391433Y-81839213D01*
X69393045Y-81834131D01*
X69395562Y-81829437D01*
X69422762Y-81740469D01*
X69423108Y-81739358D01*
X69449373Y-81656563D01*
X69451235Y-81650694D01*
X69451829Y-81645398D01*
X69453387Y-81640302D01*
X69462790Y-81547743D01*
X69462911Y-81546607D01*
X69468500Y-81496773D01*
X69468500Y-81493246D01*
X69468555Y-81492261D01*
X69469002Y-81486581D01*
X69473374Y-81443538D01*
X69469059Y-81397891D01*
X69468500Y-81386033D01*
X69468500Y-78008925D01*
X69488502Y-77940804D01*
X69542158Y-77894311D01*
X69612432Y-77884207D01*
X69677012Y-77913701D01*
X69683595Y-77919830D01*
X69873149Y-78109384D01*
X69882251Y-78119527D01*
X69905968Y-78149025D01*
X69910696Y-78152992D01*
X69944421Y-78181291D01*
X69948069Y-78184472D01*
X69949881Y-78186115D01*
X69952075Y-78188309D01*
X69985349Y-78215642D01*
X69986147Y-78216304D01*
X70057474Y-78276154D01*
X70062144Y-78278722D01*
X70066261Y-78282103D01*
X70117761Y-78309717D01*
X70148086Y-78325977D01*
X70149245Y-78326606D01*
X70225381Y-78368462D01*
X70225389Y-78368465D01*
X70230787Y-78371433D01*
X70235869Y-78373045D01*
X70240563Y-78375562D01*
X70313771Y-78397945D01*
X70329477Y-78402747D01*
X70330735Y-78403139D01*
X70419306Y-78431235D01*
X70424597Y-78431829D01*
X70429698Y-78433388D01*
X70522263Y-78442790D01*
X70523450Y-78442916D01*
X70552838Y-78446213D01*
X70569730Y-78448108D01*
X70569735Y-78448108D01*
X70573227Y-78448500D01*
X70576752Y-78448500D01*
X70577737Y-78448555D01*
X70583432Y-78449003D01*
X70595342Y-78450213D01*
X70620334Y-78452752D01*
X70620339Y-78452752D01*
X70626462Y-78453374D01*
X70672108Y-78449059D01*
X70683967Y-78448500D01*
X70981567Y-78448500D01*
X71049688Y-78468502D01*
X71089000Y-78510678D01*
X71089385Y-78511705D01*
X71176739Y-78628261D01*
X71293295Y-78715615D01*
X71429684Y-78766745D01*
X71491866Y-78773500D01*
X74588134Y-78773500D01*
X74650316Y-78766745D01*
X74786705Y-78715615D01*
X74903261Y-78628261D01*
X74990615Y-78511705D01*
X75041745Y-78375316D01*
X75048500Y-78313134D01*
X75048500Y-76566866D01*
X75041745Y-76504684D01*
X74990615Y-76368295D01*
X74903261Y-76251739D01*
X74786705Y-76164385D01*
X74650316Y-76113255D01*
X74588134Y-76106500D01*
X71491866Y-76106500D01*
X71429684Y-76113255D01*
X71293295Y-76164385D01*
X71176739Y-76251739D01*
X71171358Y-76258919D01*
X71131623Y-76311937D01*
X71074764Y-76354452D01*
X71003945Y-76359478D01*
X70941702Y-76325467D01*
X70656851Y-76040616D01*
X70647749Y-76030473D01*
X70627897Y-76005782D01*
X70624032Y-76000975D01*
X70585578Y-75968708D01*
X70581931Y-75965528D01*
X70580119Y-75963885D01*
X70577925Y-75961691D01*
X70544651Y-75934358D01*
X70543853Y-75933696D01*
X70472526Y-75873846D01*
X70467856Y-75871278D01*
X70463739Y-75867897D01*
X70381914Y-75824023D01*
X70380755Y-75823394D01*
X70304619Y-75781538D01*
X70304611Y-75781535D01*
X70299213Y-75778567D01*
X70294131Y-75776955D01*
X70289437Y-75774438D01*
X70200469Y-75747238D01*
X70199441Y-75746918D01*
X70110694Y-75718765D01*
X70105398Y-75718171D01*
X70100302Y-75716613D01*
X70007743Y-75707210D01*
X70006607Y-75707089D01*
X69972992Y-75703319D01*
X69960270Y-75701892D01*
X69960266Y-75701892D01*
X69956773Y-75701500D01*
X69953246Y-75701500D01*
X69952261Y-75701445D01*
X69946581Y-75700998D01*
X69917175Y-75698011D01*
X69909663Y-75697248D01*
X69909661Y-75697248D01*
X69903538Y-75696626D01*
X69861259Y-75700623D01*
X69857891Y-75700941D01*
X69846033Y-75701500D01*
X69301350Y-75701500D01*
X69233229Y-75681498D01*
X69212333Y-75664674D01*
X69190677Y-75643056D01*
X69156597Y-75580773D01*
X69153695Y-75553479D01*
X69158335Y-74101226D01*
X69159212Y-73826605D01*
X69179431Y-73758549D01*
X69206947Y-73728262D01*
X69208122Y-73727331D01*
X69214348Y-73723478D01*
X69219520Y-73718297D01*
X69219525Y-73718293D01*
X69242295Y-73695483D01*
X69304577Y-73661403D01*
X69331468Y-73658500D01*
X70148157Y-73658500D01*
X70161764Y-73659237D01*
X70193262Y-73662659D01*
X70193267Y-73662659D01*
X70199388Y-73663324D01*
X70225638Y-73661027D01*
X70249388Y-73658950D01*
X70254214Y-73658621D01*
X70256686Y-73658500D01*
X70259769Y-73658500D01*
X70271738Y-73657326D01*
X70302506Y-73654310D01*
X70303819Y-73654188D01*
X70348084Y-73650315D01*
X70396413Y-73646087D01*
X70401532Y-73644600D01*
X70406833Y-73644080D01*
X70495834Y-73617209D01*
X70496967Y-73616874D01*
X70580414Y-73592630D01*
X70580418Y-73592628D01*
X70586336Y-73590909D01*
X70591068Y-73588456D01*
X70596169Y-73586916D01*
X70627984Y-73570000D01*
X70678260Y-73543269D01*
X70679426Y-73542657D01*
X70756453Y-73502729D01*
X70761926Y-73499892D01*
X70766089Y-73496569D01*
X70770796Y-73494066D01*
X70842918Y-73435245D01*
X70843774Y-73434554D01*
X70882973Y-73403262D01*
X70885477Y-73400758D01*
X70886195Y-73400116D01*
X70890521Y-73396421D01*
X70905818Y-73383945D01*
X70971250Y-73356394D01*
X71041191Y-73368591D01*
X71087588Y-73413051D01*
X71089385Y-73411705D01*
X71176739Y-73528261D01*
X71293295Y-73615615D01*
X71429684Y-73666745D01*
X71491866Y-73673500D01*
X74588134Y-73673500D01*
X74650316Y-73666745D01*
X74786705Y-73615615D01*
X74903261Y-73528261D01*
X74990615Y-73411705D01*
X75041745Y-73275316D01*
X75048500Y-73213134D01*
X75048500Y-71913915D01*
X79500000Y-71913915D01*
X79500369Y-71920729D01*
X79505789Y-71970621D01*
X79509414Y-71985867D01*
X79553767Y-72104177D01*
X79562299Y-72119763D01*
X79637430Y-72220009D01*
X79649991Y-72232570D01*
X79750237Y-72307701D01*
X79765823Y-72316233D01*
X79884133Y-72360586D01*
X79899379Y-72364211D01*
X79949271Y-72369631D01*
X79956085Y-72370000D01*
X81881885Y-72370000D01*
X81897124Y-72365525D01*
X81898329Y-72364135D01*
X81900000Y-72356452D01*
X81900000Y-72351885D01*
X83900000Y-72351885D01*
X83904475Y-72367124D01*
X83905865Y-72368329D01*
X83913548Y-72370000D01*
X85843915Y-72370000D01*
X85850729Y-72369631D01*
X85900621Y-72364211D01*
X85915867Y-72360586D01*
X86034177Y-72316233D01*
X86049763Y-72307701D01*
X86150009Y-72232570D01*
X86162570Y-72220009D01*
X86237701Y-72119763D01*
X86246233Y-72104177D01*
X86290586Y-71985867D01*
X86294211Y-71970621D01*
X86299631Y-71920729D01*
X86300000Y-71913915D01*
X86300000Y-69688115D01*
X86295525Y-69672876D01*
X86294135Y-69671671D01*
X86286452Y-69670000D01*
X83918115Y-69670000D01*
X83902876Y-69674475D01*
X83901671Y-69675865D01*
X83900000Y-69683548D01*
X83900000Y-72351885D01*
X81900000Y-72351885D01*
X81900000Y-69688115D01*
X81895525Y-69672876D01*
X81894135Y-69671671D01*
X81886452Y-69670000D01*
X79518115Y-69670000D01*
X79502876Y-69674475D01*
X79501671Y-69675865D01*
X79500000Y-69683548D01*
X79500000Y-71913915D01*
X75048500Y-71913915D01*
X75048500Y-71466866D01*
X75041745Y-71404684D01*
X74990615Y-71268295D01*
X74903261Y-71151739D01*
X74786705Y-71064385D01*
X74650316Y-71013255D01*
X74588134Y-71006500D01*
X71491866Y-71006500D01*
X71429684Y-71013255D01*
X71293295Y-71064385D01*
X71176739Y-71151739D01*
X71089385Y-71268295D01*
X71088218Y-71267421D01*
X71044780Y-71310757D01*
X70975388Y-71325767D01*
X70908897Y-71300879D01*
X70895429Y-71289194D01*
X69845405Y-70239171D01*
X69811380Y-70176859D01*
X69808500Y-70150076D01*
X69808500Y-67651885D01*
X79500000Y-67651885D01*
X79504475Y-67667124D01*
X79505865Y-67668329D01*
X79513548Y-67670000D01*
X81881885Y-67670000D01*
X81897124Y-67665525D01*
X81898329Y-67664135D01*
X81900000Y-67656452D01*
X81900000Y-67651885D01*
X83900000Y-67651885D01*
X83904475Y-67667124D01*
X83905865Y-67668329D01*
X83913548Y-67670000D01*
X86281885Y-67670000D01*
X86297124Y-67665525D01*
X86298329Y-67664135D01*
X86300000Y-67656452D01*
X86300000Y-65426085D01*
X86299631Y-65419271D01*
X86294211Y-65369379D01*
X86290586Y-65354133D01*
X86246233Y-65235823D01*
X86237701Y-65220237D01*
X86162570Y-65119991D01*
X86150009Y-65107430D01*
X86049763Y-65032299D01*
X86034177Y-65023767D01*
X85915867Y-64979414D01*
X85900621Y-64975789D01*
X85850729Y-64970369D01*
X85843915Y-64970000D01*
X83918115Y-64970000D01*
X83902876Y-64974475D01*
X83901671Y-64975865D01*
X83900000Y-64983548D01*
X83900000Y-67651885D01*
X81900000Y-67651885D01*
X81900000Y-64988115D01*
X81895525Y-64972876D01*
X81894135Y-64971671D01*
X81886452Y-64970000D01*
X79956085Y-64970000D01*
X79949271Y-64970369D01*
X79899379Y-64975789D01*
X79884133Y-64979414D01*
X79765823Y-65023767D01*
X79750237Y-65032299D01*
X79649991Y-65107430D01*
X79637430Y-65119991D01*
X79562299Y-65220237D01*
X79553767Y-65235823D01*
X79509414Y-65354133D01*
X79505789Y-65369379D01*
X79500369Y-65419271D01*
X79500000Y-65426085D01*
X79500000Y-67651885D01*
X69808500Y-67651885D01*
X69808500Y-64059926D01*
X69828502Y-63991805D01*
X69845404Y-63970831D01*
X70457968Y-63358266D01*
X70457973Y-63358262D01*
X72719331Y-61096904D01*
X72781641Y-61062880D01*
X72808424Y-61060000D01*
X92444000Y-61060000D01*
X92512121Y-61080002D01*
G37*
%TD.AperFunction*%
%TD*%
M02*
