%TF.GenerationSoftware,KiCad,Pcbnew,(6.0.1)*%
%TF.CreationDate,2023-09-24T17:27:32-04:00*%
%TF.ProjectId,PCB HEATER CUVETTE 12 WELL,50434220-4845-4415-9445-522043555645,rev?*%
%TF.SameCoordinates,Original*%
%TF.FileFunction,Copper,L1,Top*%
%TF.FilePolarity,Positive*%
%FSLAX46Y46*%
G04 Gerber Fmt 4.6, Leading zero omitted, Abs format (unit mm)*
G04 Created by KiCad (PCBNEW (6.0.1)) date 2023-09-24 17:27:32*
%MOMM*%
%LPD*%
G01*
G04 APERTURE LIST*
%TA.AperFunction,NonConductor*%
%ADD10C,0.260000*%
%TD*%
%TA.AperFunction,SMDPad,CuDef*%
%ADD11R,0.600000X1.550000*%
%TD*%
%TA.AperFunction,SMDPad,CuDef*%
%ADD12R,0.800000X1.800000*%
%TD*%
%TA.AperFunction,Conductor*%
%ADD13C,0.260000*%
%TD*%
G04 APERTURE END LIST*
D10*
X151000294Y-124177075D02*
G75*
G03*
X174198777Y-100000000I-1006568J24184114D01*
G01*
X174198776Y-100000000D02*
G75*
G03*
X150000000Y-75800208I-24199284J508D01*
G01*
X150000000Y-75800210D02*
G75*
G03*
X125800259Y-100000000I24J-24199765D01*
G01*
X125800260Y-100000000D02*
G75*
G03*
X149000000Y-124179068I24206719J6698D01*
G01*
X150499882Y-124694165D02*
G75*
G03*
X174699275Y-100000000I-508729J24702886D01*
G01*
X174699274Y-100000000D02*
G75*
G03*
X150000000Y-75299710I-24699781J509D01*
G01*
X150000000Y-75299713D02*
G75*
G03*
X125299761Y-100000000I23J-24700262D01*
G01*
X125299762Y-100000000D02*
G75*
G03*
X149000000Y-124679927I24695655J-4341D01*
G01*
X151000326Y-120675993D02*
G75*
G03*
X149719136Y-120698272I-1000331J20676049D01*
G01*
X150999885Y-121677361D02*
G75*
G03*
X151000252Y-122177291I184J-249965D01*
G01*
X150999885Y-121676621D02*
G75*
G03*
X148999966Y-121676614I-999884J21677637D01*
G01*
X151000532Y-123678831D02*
G75*
G03*
X148999881Y-123678848I-1000527J23676229D01*
G01*
X151000252Y-122177291D02*
G75*
G03*
X149000152Y-122177309I-1000250J22179712D01*
G01*
X149000152Y-122678233D02*
G75*
G03*
X149000152Y-122177309I-219J250462D01*
G01*
X151000360Y-123178336D02*
G75*
G03*
X148999999Y-123178351I-1000354J23176458D01*
G01*
X149000000Y-124679928D02*
G75*
G03*
X149000000Y-124179068I0J250430D01*
G01*
X151000220Y-122678008D02*
G75*
G03*
X149000152Y-122678025I-1000227J22674571D01*
G01*
X151000220Y-122677986D02*
G75*
G03*
X151000360Y-123178336I-148J-250175D01*
G01*
X148999881Y-123679865D02*
G75*
G03*
X148999999Y-123178351I59J250757D01*
G01*
X150990023Y-123679413D02*
G75*
G03*
X151000376Y-124179052I9975J-249720D01*
G01*
X151000369Y-121176315D02*
G75*
G03*
X148999999Y-121176333I-1000376J21177901D01*
G01*
X151000314Y-120675746D02*
G75*
G03*
X151000369Y-121176314I-410J-250284D01*
G01*
X148999966Y-121676311D02*
G75*
G03*
X148999999Y-121176333I-201J249989D01*
G01*
D11*
%TO.P,J1,1,1*%
%TO.N,Net-(J1-Pad1)*%
X150500000Y-126000000D03*
%TO.P,J1,2,2*%
X149500000Y-126000000D03*
D12*
%TO.P,J1,MP1,MP1*%
%TO.N,unconnected-(J1-PadMP1)*%
X151800000Y-128525000D03*
%TO.P,J1,MP2,MP2*%
%TO.N,unconnected-(J1-PadMP2)*%
X148200000Y-128525000D03*
%TD*%
D13*
%TO.N,Net-(J1-Pad1)*%
X150500000Y-126000000D02*
X150500000Y-124700000D01*
X150000000Y-120980000D02*
X149720000Y-120700000D01*
X150000000Y-124700000D02*
X150000000Y-120980000D01*
X149500000Y-125200000D02*
X150000000Y-124700000D01*
X149500000Y-126000000D02*
X149500000Y-125200000D01*
%TD*%
M02*
